<?xml version="1.0" standalone="no"?>
<!DOCTYPE svg PUBLIC "-//W3C//DTD SVG 20010904//EN"
 "http://www.w3.org/TR/2001/REC-SVG-20010904/DTD/svg10.dtd">
<svg version="1.0" xmlns="http://www.w3.org/2000/svg"
 width="300.000000pt" height="50.000000pt" viewBox="0 0 300.000000 50.000000"
 preserveAspectRatio="xMidYMid meet">

<g transform="translate(0.000000,50.000000) scale(0.100000,-0.100000)"
fill="#000000" stroke="none">
<path d="M1321 438 c1 -68 6 -61 11 15 2 26 0 47 -4 47 -5 0 -7 -28 -7 -62z"/>
<path d="M1368 488 c8 -8 12 -46 12 -102 0 -50 4 -97 8 -103 6 -9 24 7 58 50
37 46 56 62 74 62 28 0 29 -9 17 -110 l-6 -50 13 55 13 55 12 -30 c6 -16 16
-41 22 -55 7 -19 6 -35 -3 -57 -13 -31 -14 -31 -36 -13 -12 10 -22 23 -22 29
0 9 -5 9 -20 1 -12 -6 -36 -10 -55 -8 l-34 3 30 40 30 39 -3 -33 c-2 -23 2
-35 12 -39 12 -4 13 -2 3 9 -7 9 -9 28 -3 57 4 23 6 41 3 39 -15 -16 -83 -112
-83 -119 0 -4 25 -8 56 -8 65 0 94 -13 94 -42 0 -16 -3 -18 -14 -9 -9 7 -38
11 -73 9 l-58 -3 -1 -33 c0 -35 -16 -58 -33 -48 -6 4 -11 16 -11 27 0 11 -5
29 -11 41 -6 11 -12 63 -15 115 -2 53 -6 98 -8 101 -3 2 -4 -44 -2 -103 2 -61
8 -111 15 -118 6 -6 11 -20 11 -32 0 -32 15 -48 39 -40 22 7 24 13 21 58 -1
27 -1 27 58 27 51 0 63 -4 85 -26 32 -31 54 -26 68 16 l11 30 40 -51 c40 -51
62 -58 81 -28 7 12 -1 30 -38 77 -53 68 -54 91 -6 84 26 -4 31 -9 31 -32 0
-42 17 -80 35 -80 13 0 11 -9 -11 -48 -46 -82 -19 -100 91 -62 32 11 67 20 78
20 16 0 18 5 13 27 -13 56 -25 160 -26 214 0 63 -15 85 -50 74 -12 -4 -30 -20
-40 -37 l-18 -31 -4 29 c-2 18 -11 33 -25 39 -12 5 -24 18 -27 28 -8 31 -47
16 -84 -33 -40 -53 -52 -60 -52 -29 0 12 -3 20 -6 16 -8 -8 4 -57 14 -57 4 0
24 25 45 55 58 84 88 73 66 -26 -10 -45 -17 -59 -31 -59 -10 0 -18 5 -18 12 0
8 -6 6 -16 -4 -23 -23 -12 -56 37 -112 36 -41 40 -49 28 -61 -18 -18 -27 -12
-72 48 l-37 48 -10 -28 c-6 -15 -13 -34 -15 -40 -2 -7 -11 -13 -20 -13 -20 0
-20 39 0 87 14 33 14 40 -5 90 -26 68 -26 93 -1 93 11 0 22 -5 24 -10 3 -6 4
-5 3 2 -2 7 -14 13 -28 13 -15 1 -33 7 -42 14 -26 22 -59 5 -106 -56 l-45 -58
-3 85 c-2 100 -8 130 -24 130 -9 0 -9 -3 0 -12z m443 -170 c3 -21 2 -35 -3
-32 -4 3 -8 -10 -7 -28 0 -31 2 -30 32 30 48 95 87 97 87 4 1 -60 15 -187 24
-212 5 -11 -12 -21 -68 -37 -122 -37 -134 -32 -94 45 25 46 41 50 46 10 3 -24
5 -25 36 -16 31 10 33 13 29 47 -2 20 -7 65 -11 101 l-7 65 -24 -60 c-13 -33
-29 -66 -34 -72 -15 -21 -44 -15 -51 10 -8 29 -7 136 0 165 10 36 38 23 45
-20z m67 -146 c7 -58 6 -72 -6 -77 -22 -8 -32 -6 -32 9 0 7 -7 19 -15 26 -13
11 -12 15 4 37 11 13 23 38 26 54 4 17 9 29 11 27 2 -2 7 -36 12 -76z"/>
<path d="M380 451 c-154 -50 -209 -222 -107 -338 85 -97 234 -95 316 4 105
127 24 320 -141 338 -24 2 -54 1 -68 -4z m138 -32 c121 -59 138 -241 30 -322
-66 -50 -159 -55 -223 -13 -64 42 -104 137 -85 204 34 128 161 187 278 131z"/>
<path d="M324 396 c-8 -21 85 -156 107 -156 22 0 26 29 7 48 -9 9 -1 12 35 12
32 0 49 -5 53 -15 6 -13 -62 -135 -75 -135 -3 0 -23 27 -45 60 -71 112 -95
140 -111 134 -8 -4 -15 -11 -15 -17 0 -15 161 -257 170 -257 4 0 36 43 70 95
58 87 62 98 54 128 -12 41 -44 57 -119 57 -57 0 -62 2 -78 30 -19 32 -44 39
-53 16z"/>
<path d="M1003 405 c-48 -22 -50 -22 -61 -4 -15 24 -52 25 -52 2 0 -15 2 -15
9 -4 5 8 16 11 26 7 13 -4 15 -13 11 -32 l-7 -26 30 21 c16 12 45 28 64 36 32
13 36 13 52 -5 18 -20 16 -23 -44 -110 l-62 -90 31 0 c48 0 70 -16 70 -51 0
-34 -25 -89 -41 -89 -18 0 -21 28 -5 59 9 16 16 32 16 36 0 3 -20 5 -45 5 -36
0 -45 -3 -44 -17 0 -11 3 -13 6 -5 2 6 20 12 39 12 l35 0 -18 -30 c-18 -31
-12 -59 15 -68 16 -5 52 57 52 90 0 44 -10 58 -50 64 l-39 6 56 83 c46 69 53
86 44 103 -16 31 -35 32 -88 7z"/>
<path d="M721 383 c-24 -30 -36 -66 -28 -85 3 -7 6 -3 6 10 2 52 37 92 80 92
23 0 61 -41 61 -67 0 -29 -41 -86 -73 -101 -15 -7 -27 -18 -27 -24 0 -18 41
-98 50 -98 4 0 16 26 26 57 20 59 44 82 44 41 0 -34 -45 -124 -65 -132 -40
-15 -92 63 -96 143 -2 23 -2 23 -6 4 -10 -51 46 -163 82 -163 29 0 65 43 81
98 21 68 34 87 34 48 0 -33 20 -118 30 -129 12 -13 50 11 49 31 0 14 -2 14 -6
2 -6 -15 -23 -30 -34 -30 -8 0 -29 103 -29 140 0 24 -3 27 -25 22 -31 -6 -34
17 -5 43 14 12 20 29 19 54 -2 34 -2 34 -6 6 -3 -16 -13 -41 -24 -56 -10 -15
-19 -34 -19 -43 0 -9 -4 -16 -10 -16 -5 0 -15 -20 -21 -45 -15 -60 -26 -64
-45 -19 l-15 37 36 29 c66 55 82 112 40 153 -33 34 -77 33 -104 -2z"/>
<path d="M2253 353 l-38 -56 -8 34 c-5 19 -11 40 -13 47 -4 14 -50 16 -59 2
-4 -6 6 -7 25 -4 25 6 30 3 30 -13 0 -11 5 -34 11 -51 l11 -32 44 60 c42 57
65 72 79 50 4 -6 2 -25 -4 -43 -6 -17 -12 -44 -13 -59 -2 -29 -24 -38 -44 -18
-7 7 -15 3 -23 -14 -12 -22 -10 -29 34 -86 27 -35 44 -67 41 -75 -9 -24 -23
-18 -53 21 -15 20 -36 46 -45 57 l-17 22 -7 -32 c-8 -40 -30 -61 -46 -45 -8 8
-6 26 9 66 15 40 17 59 9 72 -5 11 -16 39 -22 64 -9 30 -13 37 -13 20 0 -14 8
-43 17 -65 18 -38 18 -41 0 -87 -22 -59 -23 -74 -3 -82 23 -9 45 4 51 30 3 13
9 24 12 24 3 0 25 -21 49 -47 l43 -48 20 24 20 24 -39 42 c-70 76 -73 101 -11
101 34 -1 35 0 38 44 6 88 47 76 44 -12 l-2 -53 30 58 c55 104 88 89 93 -41
l3 -87 2 93 c2 90 1 93 -23 104 -28 13 -46 2 -78 -47 l-19 -30 6 32 c4 27 1
35 -17 44 -12 7 -28 20 -35 31 -23 33 -50 21 -89 -39z"/>
<path d="M1181 335 c-41 -36 -76 -67 -79 -70 -3 -2 1 -12 9 -21 9 -11 22 -14
42 -10 l29 6 -36 -49 c-43 -58 -46 -87 -11 -103 21 -10 35 -8 76 10 l51 21 29
-21 c41 -30 52 -15 34 46 -9 28 -15 89 -15 141 0 139 -19 146 -129 50z m113
39 c3 -9 6 -53 6 -98 0 -46 7 -105 15 -132 18 -59 17 -54 5 -54 -5 0 -19 9
-31 21 l-21 21 -53 -22 c-58 -24 -95 -20 -95 9 0 10 16 39 34 66 19 27 33 52
30 57 -3 5 -1 7 5 6 6 -2 21 13 33 32 l23 35 -46 -37 c-25 -21 -53 -38 -62
-38 -29 0 -29 20 0 43 15 12 48 41 73 64 47 45 74 53 84 27z"/>
<path d="M1209 188 c-18 -24 -37 -49 -42 -55 -5 -7 13 -4 42 8 44 19 51 25 51
50 0 44 -15 43 -51 -3z m41 2 c0 -19 -36 -47 -48 -36 -5 5 36 56 45 56 2 0 3
-9 3 -20z"/>
<path d="M2542 353 c-17 -35 -20 -49 -11 -59 15 -19 44 -18 74 2 14 9 25 14
25 12 0 -3 -22 -43 -50 -89 -27 -46 -50 -88 -51 -94 -1 -5 -5 1 -9 15 l-8 25
-1 -27 c-1 -15 3 -38 9 -52 8 -23 7 -26 -13 -26 -12 -1 -35 -7 -52 -16 -26
-12 -27 -13 -5 -9 14 3 40 8 58 12 17 3 32 9 32 13 0 24 202 53 213 30 3 -6 4
-5 3 2 -4 19 -89 21 -149 4 -37 -11 -55 -12 -64 -4 -7 6 -13 13 -13 17 0 3 29
55 64 114 35 59 62 107 59 107 -2 0 -21 -9 -43 -20 -71 -36 -92 -23 -58 37 29
51 28 50 42 31 11 -15 18 -16 49 -6 28 9 40 8 52 -2 23 -19 19 -35 -35 -123
-27 -45 -50 -86 -50 -92 0 -6 27 -8 77 -5 l78 4 -72 6 -72 5 49 80 c54 86 58
101 36 130 -12 17 -19 18 -55 9 -32 -9 -41 -8 -45 3 -11 28 -41 12 -64 -34z"/>
<path d="M760 355 c-7 -8 -15 -36 -18 -63 -5 -42 -3 -46 11 -34 18 15 47 74
47 96 0 20 -24 21 -40 1z m13 -52 c-16 -34 -18 -35 -21 -15 -4 25 29 84 35 65
3 -7 -4 -29 -14 -50z"/>
<path d="M972 328 c-37 -25 -41 -33 -36 -56 4 -15 8 -28 9 -30 1 -1 19 23 39
54 21 31 36 57 34 59 -2 2 -22 -10 -46 -27z m1 -28 c-11 -19 -21 -26 -27 -20
-6 6 0 17 15 29 32 27 33 26 12 -9z"/>
<path d="M681 264 c0 -11 3 -14 6 -6 3 7 2 16 -1 19 -3 4 -6 -2 -5 -13z"/>
<path d="M2424 233 c-35 -95 -75 -110 -85 -33 l-6 45 -1 -42 c-2 -32 3 -45 19
-57 l22 -15 -27 -46 c-22 -37 -25 -49 -16 -61 14 -16 57 -18 79 -5 10 6 1 8
-26 4 -54 -7 -60 7 -27 62 22 38 29 44 41 33 8 -6 12 -20 10 -30 -6 -21 -8
-21 31 -7 l32 11 -6 86 c-4 48 -10 91 -14 95 -4 5 -16 -13 -26 -40z m31 -130
c-5 -15 -35 -17 -35 -3 0 6 -9 19 -20 30 -11 11 -15 20 -9 20 5 0 20 24 32 53
l22 52 7 -70 c4 -38 5 -76 3 -82z"/>
<path d="M2018 119 c-22 -12 -24 -62 -4 -78 26 -22 70 -9 81 23 8 24 6 31 -14
47 -26 21 -38 23 -63 8z m56 -15 c20 -19 20 -38 2 -54 -23 -19 -61 -8 -64 18
-7 44 32 67 62 36z"/>
</g>
</svg>
