<?xml version="1.0" standalone="no"?>
<!DOCTYPE svg PUBLIC "-//W3C//DTD SVG 20010904//EN"
 "http://www.w3.org/TR/2001/REC-SVG-20010904/DTD/svg10.dtd">
<svg version="1.0" xmlns="http://www.w3.org/2000/svg"
 width="350.000000pt" height="80.000000pt" viewBox="0 0 350.000000 80.000000"
 preserveAspectRatio="xMidYMid meet">

<g transform="translate(0.000000,80.000000) scale(0.100000,-0.100000)"
fill="#008080" stroke="none">
<path d="M100 634 c0 -18 157 -184 174 -184 19 0 189 177 182 189 -14 21 -32
10 -106 -64 l-75 -75 -75 75 c-75 75 -100 89 -100 59z"/>
<path d="M554 637 c-2 -7 -3 -109 -2 -227 l3 -215 98 -3 c128 -4 171 9 228 67
65 64 84 141 58 236 -14 51 -93 130 -146 144 -56 16 -232 14 -239 -2z m262
-53 c15 -11 42 -37 58 -58 28 -34 31 -45 31 -106 0 -61 -3 -72 -31 -106 -56
-70 -75 -79 -180 -82 l-94 -4 0 192 0 192 94 -4 c76 -2 100 -7 122 -24z"/>
<path d="M633 584 c-10 -4 -13 -47 -13 -165 l0 -159 26 -6 c33 -8 120 3 155
21 109 57 110 224 2 288 -31 17 -147 32 -170 21z m136 -52 c48 -24 74 -62 74
-111 0 -74 -53 -125 -132 -125 l-46 -1 -3 114 c-1 63 0 121 2 128 7 19 65 16
105 -5z"/>
<path d="M1010 420 c0 -215 1 -231 18 -228 16 3 17 22 17 228 0 206 -1 225
-17 228 -17 3 -18 -13 -18 -228z"/>
<path d="M1074 637 c-2 -7 -3 -109 -2 -227 3 -195 5 -215 21 -218 16 -3 17 13
17 227 0 201 -2 231 -15 231 -9 0 -18 -6 -21 -13z"/>
<path d="M1527 643 c-4 -3 -7 -105 -7 -225 0 -191 2 -219 16 -225 9 -3 20 0
25 8 5 8 9 103 9 212 l0 197 94 0 c80 0 98 -3 127 -23 48 -32 68 -91 48 -142
-23 -61 -57 -79 -157 -85 l-87 -5 -3 -83 c-3 -76 -1 -83 15 -80 15 3 19 15 21
66 l3 62 65 0 c79 0 133 24 164 75 51 83 28 182 -54 230 -39 23 -53 25 -158
25 -63 0 -118 -3 -121 -7z"/>
<path d="M1934 637 c-2 -7 -3 -109 -2 -227 3 -195 5 -215 21 -218 16 -3 17 12
17 207 l0 211 96 0 c71 0 103 -4 124 -16 100 -60 66 -234 -45 -234 -64 0 -60
-19 17 -97 40 -40 78 -73 85 -73 27 0 11 37 -32 80 -48 47 -54 60 -30 60 25 0
93 69 105 106 25 74 -21 169 -97 200 -44 19 -252 19 -259 1z"/>
<path d="M2354 637 c-2 -7 -3 -109 -2 -227 l3 -215 98 -3 c90 -2 98 -1 95 15
-3 15 -16 18 -81 21 l-77 3 0 169 c0 94 4 170 8 170 5 0 93 -85 196 -190 103
-104 191 -190 196 -190 5 0 12 5 15 10 7 12 -414 450 -433 450 -7 0 -15 -6
-18 -13z"/>
<path d="M2934 631 c-45 -28 -64 -59 -64 -109 0 -54 16 -85 74 -142 72 -69 62
-90 -44 -90 -59 0 -85 -14 -59 -32 25 -16 145 -5 168 16 38 35 28 72 -39 142
-51 53 -60 68 -60 99 0 71 83 120 136 80 25 -19 54 -19 54 0 0 22 -60 55 -100
55 -19 0 -49 -9 -66 -19z"/>
<path d="M3154 637 c-2 -7 -3 -109 -2 -227 l3 -215 148 -3 c142 -2 147 -2 147
18 0 19 -6 20 -125 20 l-125 0 0 190 0 190 125 0 c118 0 125 1 125 20 0 19 -7
20 -145 20 -109 0 -147 -3 -151 -13z"/>
<path d="M50 588 c0 -7 35 -48 77 -90 l78 -78 -78 -78 c-42 -42 -77 -83 -77
-90 0 -28 30 -7 115 78 l90 90 -90 90 c-85 85 -115 106 -115 78z"/>
<path d="M392 517 c-45 -45 -82 -89 -82 -97 0 -18 160 -180 177 -180 34 0 18
29 -53 101 l-79 79 79 79 c72 72 87 101 53 101 -7 0 -49 -37 -95 -83z"/>
<path d="M1594 577 c-3 -8 -4 -54 -2 -103 l3 -89 45 -3 c118 -9 180 27 180
103 0 50 -32 89 -81 99 -57 11 -139 7 -145 -7z m172 -52 c18 -24 18 -56 0 -80
-11 -15 -27 -19 -72 -20 l-59 0 -3 49 c-5 74 -1 79 65 74 39 -3 60 -10 69 -23z"/>
<path d="M2005 578 c-3 -8 -5 -55 -3 -104 l3 -89 84 0 c81 1 84 2 112 33 39
43 39 90 1 133 -27 30 -34 32 -110 37 -65 4 -83 2 -87 -10z m159 -49 c57 -45
13 -109 -75 -109 l-49 0 0 65 0 65 49 0 c34 0 56 -6 75 -21z"/>
<path d="M2973 580 c-25 -10 -43 -39 -43 -69 0 -11 27 -49 59 -83 32 -35 60
-72 61 -83 5 -41 0 -63 -19 -86 -17 -21 -30 -25 -108 -29 -69 -4 -88 -8 -88
-20 0 -11 15 -16 65 -18 36 -2 79 0 97 3 65 12 116 94 99 161 -4 14 -34 54
-66 89 -33 36 -60 69 -60 74 0 4 7 14 15 21 13 11 21 8 50 -20 21 -20 40 -30
49 -27 23 9 20 19 -16 54 -38 36 -64 45 -95 33z"/>
<path d="M3232 582 c-9 -6 -12 -29 -10 -78 l3 -69 113 -3 c107 -3 112 -2 112
18 0 19 -6 20 -96 20 l-95 0 3 38 3 37 93 3 c82 2 93 5 90 20 -3 14 -18 17
-103 20 -55 1 -106 -2 -113 -6z"/>
<path d="M2416 474 c-3 -9 -6 -57 -6 -109 0 -110 5 -117 82 -113 41 2 54 7 56
21 3 14 -4 17 -42 17 l-46 0 0 62 0 63 113 -113 c111 -111 137 -129 137 -94 0
19 -258 282 -277 282 -6 0 -14 -7 -17 -16z"/>
<path d="M3233 404 c-9 -4 -13 -29 -13 -75 0 -82 -1 -81 135 -77 75 3 90 6 93
20 3 15 -8 18 -90 20 l-93 3 0 35 0 35 93 3 c82 2 93 5 90 20 -3 15 -18 17
-103 19 -55 1 -106 -1 -112 -3z"/>
<path d="M182 307 c-76 -76 -100 -117 -70 -117 7 0 47 34 88 75 l75 75 75 -75
c74 -74 92 -85 106 -64 7 12 -163 189 -181 189 -6 0 -47 -37 -93 -83z"/>
<path d="M2006 353 c-3 -3 -6 -42 -6 -85 0 -70 2 -79 18 -76 12 2 18 16 22 46
l5 43 45 -45 c24 -26 50 -46 56 -46 33 0 21 27 -37 87 -67 68 -92 86 -103 76z"/>
<path d="M1215 320 c-36 -13 -43 -33 -42 -117 1 -72 3 -83 18 -83 22 0 48 95
30 113 -26 26 -2 66 30 47 13 -9 7 -56 -17 -147 -4 -16 -1 -25 10 -29 24 -9
26 -4 46 82 14 57 15 83 8 100 -13 27 -55 44 -83 34z"/>
</g>
</svg>
