<?xml version="1.0" standalone="no"?>
<!DOCTYPE svg PUBLIC "-//W3C//DTD SVG 20010904//EN"
 "http://www.w3.org/TR/2001/REC-SVG-20010904/DTD/svg10.dtd">
<svg version="1.0" xmlns="http://www.w3.org/2000/svg"
 width="350.000000pt" height="80.000000pt" viewBox="0 0 350.000000 80.000000"
 preserveAspectRatio="xMidYMid meet">

<g transform="translate(0.000000,80.000000) scale(0.100000,-0.100000)"
fill="#008080" stroke="none">
<path d="M2280 648 c-18 -46 -50 -134 -72 -197 -42 -122 -64 -172 -82 -183 -8
-6 -7 -8 1 -8 18 0 44 55 97 206 73 205 91 249 105 249 8 0 48 -90 97 -215 60
-154 91 -221 109 -235 14 -12 25 -24 25 -28 0 -4 -40 -7 -90 -7 -84 0 -115 11
-71 25 20 6 19 7 -2 65 l-21 60 -76 0 -76 0 -12 -33 c-18 -51 -15 -83 11 -101
21 -15 19 -15 -48 -13 -50 1 -69 6 -67 14 1 7 -2 13 -8 13 -12 0 -30 65 -30
108 0 17 5 32 11 32 27 0 83 36 100 64 22 37 25 96 5 134 -18 34 -104 101
-131 102 -5 0 9 -12 33 -26 49 -29 72 -68 72 -119 0 -56 -24 -91 -79 -117
l-49 -22 5 -56 c3 -32 18 -82 37 -120 25 -52 41 -71 81 -97 88 -56 93 -60 73
-68 -11 -4 -44 5 -85 24 -48 22 -61 25 -43 11 29 -23 121 -60 150 -60 49 0 23
35 -67 89 -79 49 -77 61 11 61 40 0 76 3 80 7 3 4 -6 17 -21 29 -28 22 -28 22
-13 66 l15 43 61 3 61 3 12 -42 c11 -37 11 -43 -3 -51 -9 -5 -16 -14 -16 -21
0 -29 41 -37 188 -38 361 -3 389 0 428 58 74 110 3 218 -167 257 -40 9 -74 14
-76 12 -3 -2 29 -12 70 -21 89 -20 130 -43 153 -86 30 -59 -8 -157 -71 -180
-81 -30 -308 -18 -322 17 -3 8 -9 12 -14 9 -11 -8 -17 4 -104 230 -73 188 -99
235 -130 235 -8 0 -28 -37 -45 -82z"/>
<path d="M223 713 c9 -2 23 -2 30 0 6 3 -1 5 -18 5 -16 0 -22 -2 -12 -5z"/>
<path d="M414 705 c-4 -8 -1 -22 6 -30 9 -11 4 -25 -23 -68 -20 -30 -40 -58
-46 -61 -6 -4 -22 16 -37 46 -20 40 -24 56 -16 69 8 13 7 21 -6 33 -16 14 -19
13 -30 -5 -11 -18 -8 -29 24 -87 56 -102 51 -100 100 -30 51 71 60 96 45 111
-20 20 -11 27 38 27 59 0 70 -11 36 -34 -21 -14 -130 -169 -138 -195 -4 -14
126 -222 145 -232 37 -20 16 -29 -67 -29 -82 0 -96 5 -75 26 6 6 0 27 -18 59
-44 80 -67 115 -74 115 -8 0 -67 -82 -94 -129 -14 -25 -16 -35 -6 -38 6 -3 12
-11 12 -19 0 -10 -14 -14 -51 -14 -45 0 -50 -2 -39 -15 15 -18 115 -21 125 -4
4 5 0 18 -9 28 -14 16 -12 22 30 85 25 38 49 64 54 60 4 -5 20 -33 36 -61 25
-45 27 -56 17 -73 -11 -17 -10 -22 11 -36 20 -12 43 -14 113 -11 48 3 93 6 98
7 6 1 49 -1 97 -5 99 -9 163 3 220 40 114 75 128 266 28 376 l-40 44 31 -52
c85 -142 42 -311 -93 -367 -43 -19 -211 -22 -254 -6 l-27 11 22 22 c20 22 21
33 21 215 0 116 -4 193 -10 197 -14 9 -13 23 3 28 6 2 0 3 -15 1 -15 -2 -30 1
-33 6 -10 17 -105 12 -111 -5z m156 -157 c0 -183 -10 -273 -31 -286 -16 -10
-25 1 -80 89 l-62 100 19 35 c11 19 27 42 37 51 9 9 17 22 17 29 0 17 73 94
88 94 9 0 12 -34 12 -112z"/>
<path d="M1408 713 c29 -2 74 -2 100 0 26 2 2 3 -53 3 -55 0 -76 -1 -47 -3z"/>
<path d="M1823 713 c15 -2 37 -2 50 0 12 2 0 4 -28 4 -27 0 -38 -2 -22 -4z"/>
<path d="M1983 713 c9 -2 23 -2 30 0 6 3 -1 5 -18 5 -16 0 -22 -2 -12 -5z"/>
<path d="M3225 710 l-120 -7 130 1 131 1 18 -58 c10 -32 16 -60 13 -63 -3 -3
-26 10 -51 30 -47 36 -102 50 -166 44 l-35 -3 -3 -72 -3 -73 78 2 c77 2 77 2
16 5 l-63 4 0 48 c0 64 14 75 82 66 60 -8 79 -17 128 -57 19 -15 38 -28 42
-28 13 0 8 63 -7 90 -8 14 -14 35 -15 46 0 21 -20 36 -43 32 -7 -1 -66 -5
-132 -8z"/>
<path d="M738 703 c6 -2 18 -2 25 0 6 3 1 5 -13 5 -14 0 -19 -2 -12 -5z"/>
<path d="M967 703 c-4 -6 1 -19 10 -29 12 -11 22 -47 30 -103 l12 -86 -5 90
c-3 56 -10 94 -18 100 -7 6 -15 17 -18 25 -3 9 -7 10 -11 3z"/>
<path d="M1140 696 c0 -8 -8 -19 -17 -25 -16 -8 -18 -31 -18 -230 l0 -221 -62
0 c-59 0 -83 13 -48 26 12 5 15 25 13 108 l-2 101 -3 -98 c-3 -74 -7 -99 -18
-104 -20 -7 -19 -26 3 -46 13 -12 37 -17 85 -17 66 0 66 0 57 -24 -7 -19 -4
-26 15 -36 13 -7 31 -10 39 -7 20 8 56 79 56 111 0 28 -51 76 -81 76 -18 0
-19 9 -19 164 0 158 1 164 23 179 18 12 20 19 11 33 -14 24 -34 30 -34 10z
m48 -408 c25 -25 7 -105 -32 -137 -14 -11 -16 -11 -16 6 0 10 7 28 15 40 13
18 13 22 0 33 -22 18 -20 70 3 70 10 0 23 -5 30 -12z m-61 -60 c-3 -8 -6 -5
-6 6 -1 11 2 17 5 13 3 -3 4 -12 1 -19z"/>
<path d="M1323 694 c-4 -10 0 -20 10 -26 15 -8 17 -33 17 -207 0 -164 -3 -201
-15 -211 -39 -32 0 -59 87 -60 37 0 79 5 94 10 l27 11 -26 27 c-23 24 -27 37
-27 90 l0 62 65 0 c100 0 171 37 201 105 12 27 13 18 14 -92 0 -95 -3 -125
-15 -137 -40 -40 -3 -65 98 -66 69 0 77 2 77 19 0 11 -5 21 -12 23 -16 6 -25
148 -10 148 6 0 13 -10 15 -22 3 -13 4 -7 4 12 -2 30 -6 35 -29 38 l-28 3 0
-75 c0 -54 4 -79 16 -90 24 -25 7 -36 -54 -36 -73 0 -93 11 -69 38 15 16 17
44 17 216 0 189 -1 198 -20 203 -22 6 -26 18 -10 26 6 3 5 4 -2 3 -21 -4 -20
-24 1 -43 16 -13 21 -29 21 -63 l0 -45 -23 40 c-22 39 -98 105 -120 105 -7 0
6 -11 29 -25 49 -29 79 -88 69 -133 -17 -79 -94 -126 -202 -125 l-73 1 0 -65
c0 -55 4 -67 25 -89 14 -14 25 -29 25 -34 0 -6 -38 -10 -85 -10 -84 0 -99 6
-70 30 23 19 22 401 -1 424 -8 9 -12 20 -9 26 3 5 4 10 0 10 -3 0 -8 -7 -12
-16z"/>
<path d="M1578 703 c6 -2 18 -2 25 0 6 3 1 5 -13 5 -14 0 -19 -2 -12 -5z"/>
<path d="M2655 690 c-52 -25 -75 -65 -75 -127 0 -56 16 -84 68 -117 39 -24
143 -61 203 -71 24 -5 41 -15 47 -28 6 -12 11 -16 11 -9 1 20 -45 62 -68 62
-42 0 -183 52 -212 78 -53 47 -49 146 6 192 9 7 37 19 63 26 31 8 38 13 22 13
-14 1 -43 -8 -65 -19z"/>
<path d="M2871 700 c65 -8 79 -15 79 -37 0 -25 -41 -84 -53 -77 -7 4 -2 -4 10
-16 27 -28 41 -20 68 40 15 34 16 42 4 56 -21 26 -74 44 -121 43 -41 -2 -40
-2 13 -9z"/>
<path d="M3011 697 c-1 -10 6 -20 14 -23 13 -5 15 -37 15 -204 0 -163 -3 -200
-15 -210 -8 -7 -15 -20 -14 -29 0 -13 2 -13 6 -1 4 8 12 21 20 28 19 20 19
407 -1 419 -7 4 -16 15 -19 23 -4 12 -6 11 -6 -3z"/>
<path d="M90 682 c0 -5 10 -16 23 -24 21 -15 127 -180 127 -199 0 -14 -97
-158 -129 -192 -18 -19 -20 -26 -9 -22 10 4 49 53 88 110 l70 103 -63 103
c-56 91 -107 149 -107 121z"/>
<path d="M811 687 c2 -2 18 -11 34 -21 l30 -17 -24 20 c-13 12 -28 21 -34 21
-6 0 -8 -1 -6 -3z"/>
<path d="M1463 668 c-4 -7 -9 -56 -11 -109 l-4 -96 32 -7 c54 -10 77 -7 101
15 l24 21 -25 -16 c-13 -9 -39 -16 -57 -16 l-33 0 0 95 0 95 39 0 c57 0 85
-37 78 -103 -2 -29 -1 -43 4 -35 14 21 10 76 -7 109 -24 47 -121 79 -141 47z"/>
<path d="M1898 674 c-12 -4 -18 -22 -23 -77 -10 -111 -5 -141 25 -145 17 -2
21 0 12 6 -17 11 -6 173 12 184 6 4 29 8 52 8 33 0 43 -5 52 -22 6 -13 11 -18
11 -12 1 7 -7 22 -17 34 -18 22 -85 35 -124 24z"/>
<path d="M680 651 c-6 -11 -10 -92 -10 -190 0 -186 5 -202 58 -200 24 2 24 2
5 6 -23 4 -23 6 -23 188 0 157 2 184 16 189 29 11 45 6 71 -21 21 -23 24 -24
14 -6 -27 52 -110 73 -131 34z"/>
<path d="M2696 660 c-70 -21 -61 -105 14 -124 24 -7 24 -6 -2 9 -46 26 -30 77
28 91 40 10 113 -2 136 -22 21 -19 21 -19 10 2 -13 24 -89 55 -131 53 -14 0
-39 -5 -55 -9z"/>
<path d="M2040 556 c0 -60 -8 -76 -44 -92 -19 -8 -24 -13 -13 -14 10 0 29 11
42 25 20 19 25 34 25 75 0 27 -2 50 -5 50 -3 0 -5 -20 -5 -44z"/>
<path d="M821 585 c1 -19 18 -51 18 -35 0 8 -4 22 -9 30 -5 8 -9 11 -9 5z"/>
<path d="M2268 485 l-27 -75 54 0 c30 0 55 3 55 6 0 11 -43 128 -49 136 -4 4
-18 -26 -33 -67z m66 -57 c-7 -10 -31 -10 -37 0 -3 4 0 18 5 32 l9 25 14 -25
c7 -14 11 -28 9 -32z"/>
<path d="M3312 540 c-7 -12 -8 -20 -2 -20 5 0 10 5 10 11 0 5 5 7 10 4 12 -7
14 -105 2 -105 -4 0 -13 9 -20 20 -10 17 -23 20 -92 20 l-80 0 0 -93 c0 -89 1
-94 25 -107 45 -24 147 3 202 53 34 30 40 13 18 -49 l-20 -56 -170 2 c-224 1
-206 -16 26 -25 l175 -7 17 44 c20 52 22 111 4 127 -10 8 -21 4 -43 -18 -42
-41 -89 -62 -151 -68 l-54 -6 3 89 3 89 58 3 c52 3 62 0 84 -22 40 -41 53 -34
53 27 0 80 -32 128 -58 87z"/>
<path d="M843 455 c0 -38 2 -53 4 -32 2 20 2 52 0 70 -2 17 -4 1 -4 -38z"/>
<path d="M822 336 c-8 -20 -25 -43 -40 -51 -15 -8 -23 -14 -19 -15 29 -1 84
65 75 91 -2 6 -9 -6 -16 -25z"/>
<path d="M2597 335 c-21 -44 -13 -46 9 -3 l16 31 25 -32 c27 -34 72 -62 100
-60 10 0 4 5 -14 10 -18 5 -46 27 -64 49 -18 22 -38 40 -44 40 -6 0 -19 -16
-28 -35z"/>
<path d="M1930 327 c-1 -48 58 -141 112 -177 l33 -22 -36 33 c-55 53 -71 75
-90 131 -10 29 -18 45 -19 35z"/>
<path d="M2887 306 c-3 -8 -21 -19 -39 -25 -23 -6 -27 -9 -12 -10 24 -1 73 33
63 44 -4 3 -9 -1 -12 -9z"/>
</g>
</svg>
