<?xml version="1.0" standalone="no"?>
<!DOCTYPE svg PUBLIC "-//W3C//DTD SVG 20010904//EN"
 "http://www.w3.org/TR/2001/REC-SVG-20010904/DTD/svg10.dtd">
<svg version="1.0" xmlns="http://www.w3.org/2000/svg"
 width="200.000000pt" height="40.000000pt" viewBox="0 0 200.000000 40.000000"
 preserveAspectRatio="xMidYMid meet">

<g transform="translate(0.000000,40.000000) scale(0.100000,-0.100000)"
fill="#000000" stroke="none">
<path d="M1873 393 c69 -3 77 -6 77 -23 0 -13 7 -20 20 -20 17 0 20 -8 23 -77
3 -73 3 -71 5 25 2 91 0 102 -15 102 -15 0 -16 -2 -3 -10 13 -9 13 -11 0 -20
-11 -7 -16 -5 -18 10 -3 18 -11 20 -85 18 l-82 -2 78 -3z"/>
<path d="M1840 363 c0 -12 3 -14 8 -7 4 7 16 14 27 17 15 4 14 5 -7 6 -21 1
-28 -4 -28 -16z"/>
<path d="M1919 371 c11 -7 9 -10 -10 -14 -23 -4 -22 -4 4 -6 18 -1 27 4 27 14
0 8 -8 15 -17 15 -15 0 -15 -2 -4 -9z"/>
<path d="M1900 320 c0 -13 7 -20 20 -20 13 0 20 7 20 20 0 13 -7 20 -20 20
-13 0 -20 -7 -20 -20z m30 0 c0 -5 -4 -10 -10 -10 -5 0 -10 5 -10 10 0 6 5 10
10 10 6 0 10 -4 10 -10z"/>
<path d="M1951 313 c2 -28 2 -28 7 -3 5 19 8 14 13 -25 l6 -50 1 53 c2 40 -1
52 -13 52 -10 0 -15 -9 -14 -27z"/>
<path d="M131 293 c12 -21 31 -50 41 -65 10 -14 18 -29 18 -32 0 -3 -16 -30
-35 -61 -52 -80 -53 -85 -17 -85 25 0 34 7 57 46 l27 47 29 -47 c24 -38 34
-46 59 -46 17 0 30 2 30 5 0 2 -16 29 -35 60 -20 30 -38 62 -41 70 -3 8 10 41
30 73 20 33 36 62 36 66 0 3 -13 6 -29 6 -23 0 -34 -8 -53 -42 l-25 -41 -23
41 c-21 36 -28 42 -58 42 l-34 0 23 -37z"/>
<path d="M370 191 l0 -141 39 0 c63 0 100 11 130 39 60 56 60 150 1 206 -27
26 -40 30 -100 33 l-70 4 0 -141z m131 60 c37 -38 39 -82 4 -116 -13 -14 -36
-25 -50 -25 -25 0 -25 1 -25 85 0 79 1 85 21 85 11 0 34 -13 50 -29z"/>
<path d="M620 305 c0 -21 5 -25 30 -25 25 0 30 4 30 25 0 21 -5 25 -30 25 -25
0 -30 -4 -30 -25z"/>
<path d="M852 196 c-23 -74 -42 -137 -42 -140 0 -3 12 -6 28 -6 26 0 29 5 58
98 l30 97 30 -95 c28 -91 31 -95 60 -98 30 -3 31 -3 60 95 l30 98 30 -95 c27
-87 32 -95 57 -98 31 -4 31 -2 13 58 -74 241 -64 220 -100 220 -32 0 -33 -1
-61 -92 l-28 -93 -29 93 c-29 92 -29 92 -62 92 l-32 0 -42 -134z"/>
<path d="M1264 248 l44 -82 -29 -58 -29 -58 29 0 c27 0 34 9 100 135 39 74 71
137 71 140 0 3 -13 5 -30 5 -26 0 -33 -7 -56 -52 l-27 -53 -25 53 c-24 47 -29
52 -60 52 l-33 0 45 -82z"/>
<path d="M1570 305 c0 -14 5 -25 10 -25 6 0 10 -35 10 -85 0 -50 -4 -85 -10
-85 -5 0 -10 -13 -10 -30 0 -29 1 -30 50 -30 49 0 50 1 50 30 0 17 -4 30 -10
30 -6 0 -10 35 -10 85 0 50 4 85 10 85 6 0 10 11 10 25 0 23 -3 25 -50 25 -47
0 -50 -2 -50 -25z"/>
<path d="M1700 190 l0 -140 48 0 c119 0 192 100 147 201 -25 54 -68 79 -139
79 l-56 0 0 -140z m133 59 c41 -50 6 -139 -55 -139 l-28 0 0 86 0 87 33 -7
c17 -3 40 -16 50 -27z"/>
<path d="M600 225 c0 -14 5 -25 10 -25 6 0 10 -32 10 -75 l0 -75 30 0 30 0 0
100 0 100 -40 0 c-36 0 -40 -2 -40 -25z"/>
<path d="M730 94 c-11 -12 -10 -18 3 -32 16 -15 18 -15 33 0 19 18 12 48 -9
48 -8 0 -20 -7 -27 -16z"/>
<path d="M1497 104 c-10 -10 -9 -42 2 -48 18 -11 42 6 39 28 -3 21 -28 33 -41
20z"/>
<path d="M8 83 c-6 -22 1 -43 12 -43 5 0 8 13 7 30 -2 33 -12 40 -19 13z"/>
<path d="M45 50 c3 -5 8 -10 11 -10 2 0 4 5 4 10 0 6 -5 10 -11 10 -5 0 -7 -4
-4 -10z"/>
<path d="M0 21 c0 -5 7 -11 15 -15 9 -3 15 0 15 9 0 8 -7 15 -15 15 -8 0 -15
-4 -15 -9z"/>
<path d="M46 23 c5 -5 12 -12 16 -18 4 -6 8 -2 8 8 0 9 -7 17 -17 17 -9 0 -12
-3 -7 -7z"/>
</g>
</svg>
