<?xml version="1.0" standalone="no"?>
<!DOCTYPE svg PUBLIC "-//W3C//DTD SVG 20010904//EN"
 "http://www.w3.org/TR/2001/REC-SVG-20010904/DTD/svg10.dtd">
<svg version="1.0" xmlns="http://www.w3.org/2000/svg"
 width="1280.000000pt" height="1280.000000pt" viewBox="0 0 1280.000000 1280.000000"
 preserveAspectRatio="xMidYMid meet">

<g transform="translate(0.000000,1280.000000) scale(0.100000,-0.100000)"
fill="#000000" stroke="none">
<path d="M5993 12660 c-165 -10 -429 -37 -444 -45 -5 -3 -62 -12 -128 -20
-259 -30 -781 -157 -1061 -256 -47 -17 -114 -41 -150 -54 -36 -13 -113 -44
-172 -69 -59 -25 -110 -46 -113 -46 -10 0 -302 -135 -395 -183 -259 -133 -534
-299 -810 -487 -46 -32 -215 -163 -335 -261 -307 -250 -687 -639 -956 -980
-111 -140 -285 -390 -374 -537 -146 -241 -283 -502 -375 -712 -23 -52 -50
-113 -60 -135 -11 -22 -35 -83 -55 -135 -21 -52 -47 -122 -60 -155 -47 -120
-136 -409 -165 -535 -10 -41 -27 -111 -38 -155 -12 -44 -31 -127 -43 -185 -22
-105 -27 -140 -54 -325 -8 -55 -19 -127 -25 -160 -59 -366 -61 -1225 -4 -1635
23 -169 44 -314 54 -370 17 -103 69 -346 80 -374 5 -15 17 -62 26 -104 8 -43
21 -97 29 -122 81 -259 131 -413 146 -450 10 -25 34 -88 55 -140 35 -92 44
-114 105 -248 16 -34 29 -65 29 -68 0 -7 141 -289 178 -356 18 -31 42 -76 55
-100 40 -73 67 -118 151 -251 45 -70 86 -135 91 -145 17 -30 157 -225 199
-278 23 -29 63 -81 91 -115 53 -69 205 -248 245 -290 14 -14 80 -84 147 -155
241 -256 506 -484 861 -742 100 -73 159 -112 365 -244 59 -38 203 -121 302
-173 165 -89 232 -122 372 -186 84 -38 156 -69 159 -69 4 0 30 -11 58 -24 72
-34 171 -74 238 -96 32 -11 75 -28 97 -40 22 -11 49 -20 60 -20 11 0 44 -10
73 -21 53 -22 163 -53 313 -90 44 -11 118 -31 165 -44 47 -13 128 -31 180 -39
52 -9 118 -23 145 -31 28 -9 99 -20 160 -26 60 -5 161 -19 225 -31 111 -21
139 -22 785 -23 493 0 686 3 730 12 115 24 249 43 299 43 50 0 78 6 181 35 28
8 86 19 130 25 44 6 112 22 150 34 39 13 94 27 124 31 30 4 84 18 120 30 36
13 93 28 126 35 33 7 74 19 90 28 17 8 53 21 80 28 28 7 73 21 100 32 28 11
93 37 145 58 213 84 487 206 620 276 157 82 266 141 275 148 6 4 55 34 110 65
134 78 375 238 514 344 141 107 169 128 217 166 189 146 657 603 819 799 22
26 56 67 75 91 113 137 318 418 383 525 15 25 58 95 95 155 37 61 83 137 101
170 19 33 43 76 54 95 29 51 177 348 177 354 0 3 13 34 29 68 87 190 184 438
227 583 9 33 21 65 25 71 5 6 17 46 28 90 11 43 29 111 40 149 35 119 91 360
91 387 0 14 11 68 24 119 14 52 27 132 31 179 4 47 16 141 28 210 21 120 22
152 22 825 0 673 -1 705 -22 825 -12 69 -24 166 -28 215 -4 50 -15 119 -25
155 -11 36 -22 85 -25 110 -7 57 -71 333 -98 425 -11 39 -30 106 -42 150 -55
199 -166 493 -276 733 -16 34 -29 64 -29 67 0 8 -152 311 -180 360 -13 22 -38
68 -57 103 -44 83 -105 182 -196 322 -291 443 -604 808 -1022 1191 -33 31 -73
68 -90 83 -44 41 -362 295 -428 341 -32 22 -79 56 -106 75 -27 19 -77 53 -111
75 -35 22 -80 51 -101 65 -192 126 -517 302 -789 427 -402 185 -930 360 -1283
424 -54 10 -126 25 -160 33 -34 9 -107 20 -162 26 -55 6 -131 18 -170 26 -197
40 -911 65 -1282 44z m922 -404 c242 -29 432 -57 510 -76 44 -10 107 -24 140
-29 106 -19 264 -57 395 -96 127 -38 342 -105 365 -115 71 -29 234 -90 240
-90 3 0 30 -11 58 -24 29 -14 99 -46 157 -71 251 -112 589 -294 737 -396 23
-16 43 -29 46 -29 10 0 232 -153 334 -231 132 -101 173 -133 288 -229 145
-120 170 -143 385 -359 203 -204 309 -320 448 -496 40 -49 85 -106 100 -125
28 -35 148 -201 167 -232 6 -9 55 -88 111 -175 55 -87 113 -179 127 -205 15
-26 46 -83 70 -125 55 -97 237 -472 237 -487 0 -3 11 -29 24 -58 65 -144 163
-421 225 -638 38 -132 86 -325 111 -445 7 -33 18 -87 25 -120 13 -59 21 -108
49 -315 39 -286 41 -308 41 -700 0 -265 -4 -428 -13 -495 -44 -338 -60 -447
-97 -625 -143 -691 -386 -1306 -760 -1925 -101 -167 -261 -400 -345 -505 -20
-25 -67 -83 -104 -130 -236 -294 -545 -608 -847 -861 -417 -348 -921 -659
-1439 -887 -44 -19 -67 -29 -222 -91 -305 -123 -905 -281 -1213 -320 -44 -6
-129 -17 -190 -26 -357 -49 -972 -43 -1355 15 -36 5 -101 14 -145 20 -441 61
-1086 250 -1510 443 -702 318 -1264 706 -1800 1242 -361 360 -645 720 -887
1125 -105 175 -121 204 -217 395 -103 203 -153 313 -224 490 -168 421 -295
908 -361 1385 -42 299 -49 408 -49 740 -1 308 10 498 38 670 7 47 19 126 25
175 36 296 174 829 301 1165 88 234 118 304 233 540 223 459 517 907 837 1275
98 113 145 163 245 265 254 259 420 408 654 585 58 44 110 85 117 91 42 40
378 256 578 372 92 54 338 178 460 234 180 81 185 83 315 133 69 26 133 51
142 56 10 5 48 18 85 28 37 11 95 29 128 40 389 128 968 238 1400 265 132 8
715 -4 830 -18z"/>
<path d="M3705 11204 c-197 -31 -385 -166 -472 -339 -42 -84 -53 -146 -53
-310 0 -250 -47 -163 649 -1205 329 -492 703 -1052 832 -1245 841 -1253 1004
-1496 1092 -1629 119 -178 192 -253 296 -305 103 -52 154 -61 346 -61 179 0
243 9 323 46 29 13 55 24 58 24 13 0 135 94 166 128 47 52 97 143 114 205 18
69 19 334 0 402 -21 80 -44 119 -319 530 -144 215 -285 426 -314 470 -90 135
-238 120 1172 120 1160 0 1224 -1 1299 -19 333 -79 614 -362 695 -699 26 -107
26 -163 0 -263 -28 -110 -72 -198 -177 -354 -49 -74 -139 -209 -199 -300 -60
-91 -194 -291 -298 -445 -103 -154 -351 -523 -550 -820 -199 -297 -441 -657
-537 -800 -497 -738 -656 -976 -693 -1032 -56 -88 -81 -92 -124 -25 -13 20
-32 48 -41 62 -9 14 -132 196 -272 405 -140 209 -311 463 -380 565 -161 239
-856 1276 -928 1385 -54 81 -414 617 -821 1223 -112 166 -229 340 -259 386
-30 47 -197 295 -370 553 -172 257 -365 545 -426 638 -115 173 -221 330 -262
388 -12 18 -58 82 -101 143 -114 163 -201 234 -336 277 -61 19 -91 22 -235 21
-152 -1 -171 -3 -245 -28 -159 -54 -289 -162 -357 -297 -52 -101 -61 -163 -55
-359 7 -242 -43 -148 562 -1050 153 -228 341 -509 418 -625 77 -115 147 -221
157 -235 100 -146 699 -1039 1285 -1915 166 -247 389 -580 496 -738 107 -158
219 -326 249 -372 56 -86 796 -1190 1129 -1685 350 -522 635 -945 684 -1020
79 -120 79 -120 162 -120 60 0 75 3 91 21 10 11 198 287 416 612 218 326 607
906 865 1290 257 384 491 733 518 775 59 90 73 110 358 534 325 482 384 570
407 603 12 17 76 113 144 215 67 102 265 399 441 660 285 426 366 558 434 712
27 60 84 238 100 308 7 30 19 82 26 115 46 197 45 725 0 905 -8 30 -22 89 -31
130 -104 460 -421 929 -812 1203 -269 188 -494 283 -832 350 -103 21 -133 21
-1902 26 l-1798 6 -24 25 c-14 14 -78 104 -143 201 -184 274 -361 535 -430
634 -34 50 -118 173 -187 275 -372 552 -379 560 -480 631 -102 72 -170 90
-346 94 -80 2 -158 1 -175 -1z"/>
</g>
</svg>
