<?xml version="1.0" standalone="no"?>
<!DOCTYPE svg PUBLIC "-//W3C//DTD SVG 20010904//EN"
 "http://www.w3.org/TR/2001/REC-SVG-20010904/DTD/svg10.dtd">
<svg version="1.0" xmlns="http://www.w3.org/2000/svg"
 width="200.000000pt" height="200.000000pt" viewBox="0 0 200.000000 200.000000"
 preserveAspectRatio="xMidYMid meet">
<metadata>
Created by potrace 1.14, written by Peter Selinger 2001-2017
</metadata>
<g transform="translate(0.000000,200.000000) scale(0.100000,-0.100000)"
fill="#000000" stroke="none">
<path d="M452 1772 c-53 -2 -72 -6 -69 -15 3 -7 102 -180 221 -386 l216 -373
-69 -117 c-169 -286 -371 -644 -367 -649 3 -2 222 -4 488 -3 433 2 484 3 495
18 24 32 433 742 433 752 0 6 -32 66 -71 133 -39 68 -134 233 -212 368 -77
135 -145 250 -151 257 -8 8 -124 12 -426 15 -228 2 -448 2 -488 0z m995 -471
c159 -276 174 -306 163 -325 -8 -12 -63 -106 -123 -211 -61 -104 -135 -233
-166 -285 l-56 -95 -308 -3 c-185 -1 -307 1 -305 7 9 24 254 441 259 441 3 0
48 -72 98 -160 86 -149 94 -160 127 -166 42 -8 76 12 93 54 12 29 8 38 -103
229 -64 110 -116 205 -116 212 0 7 52 103 117 214 l116 201 -20 36 c-19 32
-25 35 -71 38 l-50 3 -92 -161 c-51 -88 -96 -160 -99 -160 -3 0 -63 99 -133
220 l-127 220 311 -2 310 -3 175 -304z"/>
<path d="M283 1608 c-6 -7 -27 -42 -47 -77 l-37 -64 97 -166 c54 -91 115 -197
137 -234 l38 -69 -136 -233 -137 -234 41 -70 c23 -38 45 -72 49 -75 9 -5 362
595 362 613 0 9 -335 597 -350 614 -4 4 -11 2 -17 -5z"/>
</g>
</svg>
