<?xml version="1.0" standalone="no"?>
<!DOCTYPE svg PUBLIC "-//W3C//DTD SVG 20010904//EN"
 "http://www.w3.org/TR/2001/REC-SVG-20010904/DTD/svg10.dtd">
<svg version="1.0" xmlns="http://www.w3.org/2000/svg"
 width="350.000000pt" height="350.000000pt" viewBox="0 0 350.000000 350.000000"
 preserveAspectRatio="xMidYMid meet">
<metadata>
Created by potrace 1.14, written by Peter Selinger 2001-2017
</metadata>
<g transform="translate(0.000000,350.000000) scale(0.100000,-0.100000)"
fill="#000000" stroke="none">
<path d="M3150 2090 c0 -5 26 -9 58 -8 80 1 96 -1 88 -9 -4 -5 -24 -8 -44 -8
-33 -1 -37 -4 -40 -28 -2 -15 1 -27 7 -27 6 0 11 9 11 19 0 15 7 19 35 19 27
0 35 -4 33 -16 -2 -14 7 -18 45 -20 47 -3 48 -3 45 24 -3 28 -25 39 -49 23
-11 -7 -11 -9 3 -9 30 0 29 -18 -1 -22 -27 -4 -29 -2 -29 24 1 27 6 30 48 30
47 0 50 -2 50 -37 0 -34 1 -35 41 -35 35 0 40 -3 35 -17 -4 -10 -3 -14 1 -9 4
4 9 32 9 62 l2 54 -174 0 c-105 0 -174 -4 -174 -10z m333 -26 c-8 -21 -33 -17
-33 5 0 14 5 18 19 14 12 -3 17 -11 14 -19z m-39 -30 c3 -8 2 -12 -4 -9 -6 3
-10 10 -10 16 0 14 7 11 14 -7z"/>
<path d="M3323 1958 c3 -29 7 -33 35 -34 30 -1 32 1 32 32 0 32 -2 34 -36 34
-34 0 -35 -1 -31 -32z m47 2 c0 -11 -7 -20 -15 -20 -15 0 -21 21 -8 33 12 13
23 7 23 -13z"/>
<path d="M3410 1947 c0 -36 4 -46 19 -50 13 -3 20 -13 19 -28 -2 -29 -17 -51
-29 -43 -5 3 -9 0 -9 -5 0 -6 11 -11 25 -11 22 0 25 4 26 38 1 20 1 40 0 45 0
4 6 7 15 7 10 0 14 -6 10 -15 -3 -8 -1 -15 4 -15 6 0 10 23 10 50 0 28 -4 50
-9 50 -4 0 -7 -13 -5 -30 3 -23 0 -28 -12 -23 -10 4 -14 16 -12 37 3 27 0 31
-24 34 -27 3 -28 1 -28 -41z m36 -3 c-7 -38 -13 -39 -18 -4 -3 21 0 30 9 30 9
0 12 -9 9 -26z"/>
<path d="M250 1949 c0 -5 29 -56 65 -114 36 -57 65 -108 65 -111 0 -4 -29 -53
-65 -110 -36 -57 -66 -109 -67 -115 -2 -9 14 -13 48 -14 l52 -2 42 69 c23 37
45 68 48 68 4 0 25 -30 48 -67 l40 -68 56 0 c66 -1 68 -15 -26 136 l-64 103
68 110 c37 61 66 113 64 115 -2 3 -27 5 -54 6 l-50 2 -41 -69 -41 -69 -41 67
-42 68 -52 2 c-29 0 -53 -3 -53 -7z"/>
<path d="M690 1911 c-1 -82 -2 -396 -1 -412 1 -24 162 -19 221 8 82 36 133
119 131 214 -1 65 -18 113 -57 158 -45 54 -94 72 -200 75 l-94 3 0 -46z m177
-61 c16 -6 40 -24 52 -41 68 -92 6 -229 -103 -229 l-36 0 0 140 0 140 29 0
c15 0 41 -5 58 -10z"/>
<path d="M1106 1951 c-2 -3 -4 -25 -4 -48 l-1 -43 50 0 50 0 -3 47 -3 47 -43
2 c-23 1 -44 -1 -46 -5z"/>
<path d="M1516 1816 c-85 -271 -96 -307 -96 -320 0 -9 14 -13 47 -12 l47 2 48
153 c26 85 49 155 50 157 2 1 25 -68 52 -155 l48 -157 51 0 c59 1 52 -11 107
176 44 148 40 138 49 120 4 -8 25 -73 46 -145 21 -71 42 -134 46 -139 8 -9 99
-17 99 -9 0 3 -16 57 -36 121 -20 64 -52 169 -71 232 l-35 116 -54 0 -54 -1
-31 -100 c-16 -55 -38 -125 -48 -155 l-18 -55 -11 35 c-6 19 -27 88 -47 153
-20 64 -39 118 -43 118 -4 1 -28 3 -55 4 l-47 2 -44 -141z"/>
<path d="M2110 1951 c0 -3 32 -67 70 -143 l70 -137 -46 -86 c-25 -47 -43 -89
-40 -93 9 -8 81 -11 93 -3 9 6 223 417 236 452 4 13 -3 16 -46 15 l-52 -1 -46
-88 -45 -88 -46 88 -46 88 -51 1 c-28 0 -51 -2 -51 -5z"/>
<path d="M2684 1951 c-2 -2 -4 -24 -4 -48 0 -36 3 -43 20 -43 19 0 20 -7 20
-139 0 -132 -1 -139 -21 -144 -17 -5 -20 -12 -17 -49 l3 -43 83 0 82 -1 0 48
c0 40 -3 48 -18 48 -17 0 -19 11 -19 140 0 129 2 140 19 140 15 0 18 8 18 48
l0 48 -81 0 c-44 0 -82 -2 -85 -5z"/>
<path d="M2902 1721 l3 -236 70 0 c101 -1 147 11 194 52 131 112 109 317 -43
395 -31 16 -62 21 -133 22 l-93 2 2 -235z m196 119 c114 -70 61 -260 -73 -260
l-35 0 0 140 0 140 38 0 c20 0 52 -9 70 -20z"/>
<path d="M3486 1809 c5 -71 14 -75 14 -6 0 32 -4 57 -8 57 -5 0 -7 -23 -6 -51z"/>
<path d="M1067 1813 c-8 -18 0 -88 10 -88 23 0 26 -17 25 -127 l-1 -113 49 0
50 0 0 167 0 168 -64 0 c-36 0 -67 -3 -69 -7z"/>
<path d="M26 1573 c-3 -3 -6 -18 -6 -32 0 -21 -2 -23 -10 -11 -7 11 -10 6 -9
-20 0 -29 2 -31 9 -15 7 17 9 16 10 -10 l2 -30 8 30 7 30 5 -30 5 -30 2 33 c0
17 -3 32 -9 32 -14 0 -12 38 2 42 8 3 9 6 1 11 -5 4 -13 4 -17 0z"/>
<path d="M1286 1564 c-20 -19 -20 -34 -1 -61 23 -33 85 -8 85 33 0 19 -29 44
-50 44 -10 0 -26 -7 -34 -16z"/>
<path d="M2556 1564 c-22 -21 -20 -50 5 -67 26 -19 58 -11 69 17 19 51 -36 89
-74 50z"/>
<path d="M67 1497 c-6 -15 6 -39 18 -39 15 0 24 26 13 39 -13 17 -25 16 -31 0z"/>
<path d="M2 1438 l0 -38 20 23 19 22 -11 -22 c-9 -19 -8 -23 5 -23 9 0 15 9
15 25 0 18 -5 25 -19 25 -11 0 -21 6 -24 13 -2 6 -5 -5 -5 -25z"/>
<path d="M83 1443 c28 -4 37 -27 15 -36 -7 -3 1 -6 17 -6 23 -1 26 2 15 9 -12
8 -10 10 8 10 13 0 20 -4 17 -10 -3 -5 -2 -10 3 -10 5 0 12 12 15 26 3 18 1
22 -6 15 -14 -14 -47 -14 -47 -1 0 6 -15 9 -32 9 -31 -2 -31 -2 -5 -6z"/>
<path d="M68 1423 c6 -2 18 -2 25 0 6 3 1 5 -13 5 -14 0 -19 -2 -12 -5z"/>
</g>
</svg>
