<?xml version="1.0" standalone="no"?>
<!DOCTYPE svg PUBLIC "-//W3C//DTD SVG 20010904//EN"
 "http://www.w3.org/TR/2001/REC-SVG-20010904/DTD/svg10.dtd">
<svg version="1.0" xmlns="http://www.w3.org/2000/svg"
 width="3264.000000pt" height="3264.000000pt" viewBox="0 0 3264.000000 3264.000000"
 preserveAspectRatio="xMidYMid meet">
<metadata>
Created by potrace 1.14, written by Peter Selinger 2001-2017
</metadata>
<g transform="translate(0.000000,3264.000000) scale(0.100000,-0.100000)"
fill="#000000" stroke="none">
<path d="M29354 19505 l-1 -75 326 0 c179 0 493 0 696 0 l370 0 0 -91 c0 -77
-3 -93 -17 -98 -10 -3 -193 -6 -407 -5 l-389 1 1 -246 2 -246 75 0 75 0 0 40
c0 22 5 43 10 47 6 5 5 8 -2 8 -9 0 -10 7 -3 25 6 15 6 27 0 30 -6 3 -6 15 0
30 6 15 6 27 0 30 -6 3 -6 15 0 29 5 13 6 27 2 30 -9 10 -10 46 0 46 5 0 6 5
3 10 -7 11 -4 12 77 14 32 0 58 -3 58 -7 0 -5 5 -5 11 -1 16 10 89 12 95 2 3
-4 16 -3 29 2 15 6 27 6 30 -1 4 -5 12 -6 18 -2 15 10 38 10 57 2 8 -4 24 -3
35 1 11 4 34 4 52 -1 18 -4 33 -3 33 1 0 8 51 7 66 -2 5 -3 18 -2 28 2 11 3
29 5 40 3 21 -4 21 -10 20 -172 l0 -168 33 -1 c18 -1 41 -2 51 -2 47 1 89 1
107 0 11 0 39 1 63 2 23 2 42 -1 42 -7 0 -6 3 -6 8 1 7 10 78 11 89 0 3 -3 14
-1 24 4 11 6 27 7 42 1 14 -6 28 -7 31 -3 11 11 36 11 36 0 0 -7 4 -7 13 -1 6
5 48 8 92 6 93 -4 84 -4 155 1 76 5 77 5 65 14 -6 4 -10 97 -10 242 l0 235
-235 2 c-129 1 -242 -1 -251 -3 -12 -3 -15 -13 -13 -35 2 -17 6 -35 9 -40 4
-5 2 -9 -3 -9 -5 0 -8 -10 -6 -22 1 -13 3 -28 3 -35 1 -8 46 -11 164 -10 89 1
167 -2 172 -5 6 -4 10 -26 9 -50 -1 -24 4 -49 10 -57 8 -11 8 -13 -1 -8 -8 5
-11 -4 -10 -30 l2 -38 -270 0 -270 0 0 263 c-1 256 0 263 20 268 11 2 209 3
440 2 l420 -3 1 -55 c1 -30 3 -59 4 -65 1 -5 1 -12 0 -15 -7 -19 -7 -41 1 -46
5 -3 5 -13 -1 -24 -12 -22 -10 -41 5 -52 7 -5 7 -10 0 -15 -14 -11 -14 -103
-1 -103 6 0 5 -4 -2 -9 -8 -4 -14 -12 -14 -16 0 -4 6 -12 14 -16 8 -6 9 -12 3
-16 -13 -10 -14 -96 0 -105 7 -6 7 -10 -1 -15 -13 -10 -13 -65 1 -75 6 -5 6
-8 -2 -8 -15 0 -13 -38 3 -44 6 -2 36 -3 67 -3 32 1 57 -2 57 -7 0 -5 6 -4 13
1 14 10 338 10 355 -1 7 -4 12 -3 12 1 0 5 20 8 45 8 25 0 45 -4 45 -8 0 -5 5
-5 12 -1 17 11 58 13 58 3 0 -4 6 -6 13 -4 17 7 18 -852 0 -863 -9 -6 -104 -7
-169 -3 -6 1 -11 7 -11 14 0 6 -4 21 -8 32 -4 12 -3 15 2 8 4 -6 8 18 8 57 0
38 -3 66 -6 64 -4 -2 -4 11 0 29 8 39 8 48 -2 65 -5 7 -4 12 2 12 6 0 11 5 11
11 0 5 -4 8 -9 5 -5 -3 -6 8 -2 27 4 17 6 41 4 52 -4 34 -4 57 -1 138 2 42 -1
77 -5 77 -5 0 -6 4 -2 9 3 5 7 23 9 40 4 40 -5 42 -142 40 -62 -1 -115 0 -117
2 -2 2 -57 3 -123 1 -98 -3 -121 -6 -126 -19 -4 -8 -2 -21 4 -28 5 -6 7 -15 4
-18 -10 -10 -11 -137 -1 -137 5 0 5 -6 -2 -13 -8 -10 -7 -17 2 -27 6 -7 7 -10
2 -7 -14 7 -14 -85 0 -95 7 -5 7 -11 0 -15 -14 -11 -14 -103 -1 -103 6 0 5 -4
-2 -9 -8 -4 -14 -12 -14 -16 0 -4 6 -12 14 -16 8 -6 9 -12 3 -16 -13 -10 -14
-96 0 -105 7 -6 7 -10 -1 -15 -13 -10 -13 -65 1 -75 7 -5 6 -8 0 -8 -9 0 -11
-40 -6 -106 1 -8 51 -11 159 -12 86 0 164 -1 172 -1 12 -1 16 -12 15 -48 0
-27 -3 -53 -7 -59 -4 -6 -4 -14 0 -18 12 -13 10 -256 -2 -256 -8 0 -8 -3 0 -8
5 -4 10 -18 10 -32 0 -14 -5 -28 -10 -32 -8 -5 -8 -8 -1 -8 12 0 15 -158 3
-175 -4 -6 -70 -10 -168 -9 -132 1 -163 -2 -167 -14 -5 -12 -7 -72 -4 -124 1
-17 20 -18 252 -18 232 0 250 1 248 18 -1 9 0 19 1 22 7 20 7 59 0 55 -5 -3
-5 7 -1 22 8 31 7 58 -4 88 -4 12 -3 15 2 8 4 -6 8 20 8 63 0 41 -4 74 -8 74
-4 0 -3 8 2 18 5 10 6 24 1 32 -4 7 -5 23 -1 34 3 12 5 46 4 76 -3 64 -3 73 0
160 1 36 -1 73 -6 84 -6 13 -6 16 2 11 8 -4 10 1 6 17 -6 23 -5 23 90 23 52 0
96 -2 96 -5 1 -3 2 -309 3 -680 l1 -675 73 -3 72 -3 0 1271 0 1270 -42 0 c-24
1 -177 1 -340 0 -235 0 -298 2 -299 12 -1 7 -2 20 -3 28 -1 8 3 21 8 28 5 7 5
12 0 12 -5 0 -9 23 -9 50 0 28 3 50 7 50 4 0 4 10 0 23 -9 28 -8 88 2 105 4 6
3 12 -2 12 -12 0 -12 32 1 48 5 6 5 12 0 12 -5 0 -9 9 -10 20 -1 11 3 20 8 20
6 0 7 5 3 11 -10 17 -11 162 -1 177 6 7 6 12 -1 12 -7 0 -9 14 -7 35 l5 35
-1293 0 -1293 0 0 -75z m2772 -1182 c-1 -39 -4 -75 -8 -79 -4 -4 -4 -12 0 -18
8 -12 10 -356 2 -357 -39 -5 -173 -2 -177 5 -9 14 -9 287 0 293 4 3 3 11 -3
18 -8 10 -8 15 0 20 6 4 7 12 2 18 -4 7 -7 23 -5 37 4 25 4 36 1 75 -3 63 -6
62 95 61 l93 -1 0 -72z"/>
<path d="M32008 19540 c-2 -23 1 -40 7 -40 7 0 7 -3 0 -8 -12 -8 -14 -112 -2
-112 5 0 5 -5 1 -11 -9 -16 -11 -109 -1 -109 5 0 5 -5 1 -11 -9 -16 -11 -109
-1 -109 5 0 5 -5 1 -11 -11 -18 -10 -109 1 -113 6 -3 5 -5 -2 -5 -6 -1 -9 -10
-6 -21 5 -19 14 -20 309 -20 l304 0 0 305 0 305 -304 0 -304 0 -4 -40z m467
-265 l0 -151 -120 1 c-72 0 -123 -3 -127 -10 -5 -6 -8 -6 -8 2 0 6 -9 10 -20
8 -11 -2 -22 1 -26 7 -5 8 -8 194 -5 281 1 16 13 17 153 15 l153 -3 0 -150z"/>
<path d="M30977 18543 c-3 -5 -4 -41 -3 -80 1 -40 -3 -73 -8 -73 -5 0 -5 -5 1
-12 5 -7 8 -103 7 -213 -2 -224 -1 -239 24 -226 10 5 24 6 33 1 8 -5 21 -5 28
0 8 4 26 4 41 0 15 -4 33 -4 41 0 7 5 20 5 29 0 9 -5 22 -5 30 0 8 5 19 6 25
2 17 -11 35 -11 35 0 0 7 4 7 13 0 7 -6 18 -7 25 -3 6 4 37 4 67 1 31 -3 55
-2 55 3 0 5 6 5 13 -1 7 -6 18 -7 26 -3 8 5 26 5 41 1 15 -4 34 -3 45 2 12 8
20 7 26 -3 14 -24 19 31 16 224 -1 117 2 189 8 191 7 3 7 5 0 5 -6 1 -9 39 -8
96 l2 95 -304 0 c-167 0 -306 -3 -308 -7z m453 -160 c0 -7 6 -13 13 -13 8 0 9
-3 1 -8 -6 -4 -10 -23 -9 -42 0 -19 -4 -41 -9 -49 -8 -11 -8 -13 0 -8 12 7 14
-155 1 -164 -4 -3 -74 -5 -155 -4 l-147 1 0 40 c1 21 -4 42 -10 46 -7 5 -7 8
0 8 7 0 11 38 10 103 l0 103 152 0 c118 0 153 -3 153 -13z"/>
<path d="M2270 18355 c0 -11 9 -31 20 -45 11 -14 20 -28 20 -32 0 -3 32 -57
71 -120 40 -62 81 -129 93 -148 12 -20 44 -73 71 -118 28 -46 59 -98 70 -117
11 -19 55 -91 98 -160 42 -69 77 -130 77 -134 0 -5 3 -11 8 -13 10 -4 92 -137
92 -149 0 -5 3 -9 8 -9 4 0 16 -18 26 -40 11 -22 23 -40 28 -40 5 0 7 -4 4 -8
-3 -5 3 -18 12 -28 10 -10 25 -34 32 -51 8 -18 18 -33 22 -33 5 0 8 -6 8 -13
0 -7 8 -22 18 -33 10 -10 25 -34 32 -51 8 -18 18 -33 22 -33 5 0 8 -6 8 -14 0
-8 3 -16 8 -18 4 -1 18 -23 31 -48 14 -25 28 -47 31 -50 6 -4 29 -44 65 -111
5 -11 13 -19 17 -19 5 0 8 -9 8 -20 0 -11 4 -20 8 -20 5 0 15 -12 23 -27 8
-16 16 -30 19 -33 11 -11 110 -182 110 -191 0 -5 4 -9 10 -9 5 0 12 -11 16
-25 3 -14 10 -25 15 -25 5 0 17 -18 26 -40 10 -22 21 -40 25 -40 5 0 8 -5 8
-11 0 -6 9 -24 21 -40 23 -32 23 -33 -21 -99 -16 -25 -36 -60 -46 -77 -9 -18
-20 -33 -25 -33 -5 0 -9 -5 -9 -11 0 -6 -15 -34 -34 -62 -18 -29 -51 -80 -72
-115 -21 -35 -47 -75 -56 -90 -10 -15 -25 -42 -35 -59 -9 -18 -20 -33 -23 -33
-3 0 -12 -16 -20 -35 -7 -19 -17 -32 -22 -29 -4 3 -8 -4 -8 -15 0 -12 -4 -21
-9 -21 -5 0 -14 -13 -21 -30 -7 -16 -16 -30 -21 -30 -5 0 -9 -7 -9 -15 0 -8
-5 -15 -11 -15 -5 0 -8 -4 -5 -9 3 -5 -1 -14 -9 -21 -8 -7 -25 -32 -37 -56
-12 -24 -25 -44 -30 -44 -4 0 -8 -6 -8 -13 0 -7 -9 -23 -19 -34 -11 -12 -18
-23 -15 -26 2 -2 -2 -10 -11 -17 -8 -7 -15 -19 -15 -26 0 -8 -4 -14 -10 -14
-5 0 -10 -7 -10 -15 0 -8 -4 -15 -10 -15 -5 0 -10 -4 -10 -9 0 -12 -63 -115
-72 -119 -5 -2 -8 -9 -8 -16 0 -7 -8 -21 -17 -32 -10 -10 -25 -32 -33 -49 -8
-16 -19 -34 -23 -40 -14 -18 -167 -260 -174 -275 -4 -8 -14 -26 -24 -40 -9
-14 -43 -68 -75 -120 -32 -52 -62 -96 -66 -98 -4 -2 -8 -8 -8 -13 0 -5 -49
-88 -110 -184 -60 -97 -110 -184 -109 -193 0 -9 2 -12 5 -7 3 7 185 10 523 9
l520 -2 30 50 c17 27 31 54 31 59 0 5 4 9 9 9 5 0 14 14 21 30 7 17 17 30 23
30 6 0 8 3 4 6 -3 4 5 22 20 40 14 19 22 34 17 34 -4 0 1 7 12 15 10 8 15 15
11 15 -4 0 1 10 13 22 11 12 20 28 20 35 0 7 4 13 10 13 5 0 12 11 16 25 3 14
10 25 15 25 5 0 9 7 9 15 0 9 7 18 15 21 8 4 13 10 10 14 -3 5 1 14 8 22 7 7
33 46 57 86 25 40 53 85 62 100 10 15 23 37 29 50 7 12 16 22 20 22 4 0 10 14
14 30 4 17 10 30 14 30 5 0 30 37 56 83 27 45 59 96 72 113 13 17 23 36 23 42
0 7 5 12 10 12 6 0 10 6 10 13 0 8 11 27 25 43 13 15 22 30 20 32 -2 3 7 19
20 37 14 17 25 37 25 43 0 7 5 12 11 12 5 0 15 14 20 30 6 17 15 30 21 30 5 0
7 4 4 9 -8 13 23 36 34 25 5 -5 38 -56 74 -114 36 -58 70 -110 75 -117 6 -7
11 -15 11 -18 0 -6 15 -30 94 -152 25 -40 46 -75 46 -78 0 -3 5 -11 10 -18 6
-7 31 -46 57 -87 25 -41 61 -98 80 -127 18 -28 33 -56 33 -61 0 -6 4 -12 8
-14 4 -1 37 -50 72 -108 35 -58 89 -143 119 -190 31 -47 56 -87 56 -90 1 -3
18 -31 38 -63 21 -31 40 -63 43 -71 4 -12 92 -14 530 -14 288 0 526 4 529 8 2
4 -4 18 -15 30 -11 13 -20 29 -20 37 0 7 -4 13 -10 13 -5 0 -10 7 -10 15 0 8
-4 15 -9 15 -5 0 -16 18 -25 40 -9 22 -19 40 -23 40 -5 0 -19 21 -33 48 -14
26 -30 53 -37 60 -7 7 -13 17 -13 21 0 4 -9 18 -20 31 -11 13 -20 29 -20 37 0
7 -4 13 -10 13 -5 0 -10 7 -10 15 0 8 -4 15 -9 15 -5 0 -11 8 -14 18 -6 17
-38 73 -47 82 -12 11 -90 142 -90 151 0 5 -3 9 -7 9 -5 0 -21 23 -38 51 -16
28 -38 63 -47 78 -10 14 -21 33 -25 41 -4 8 -24 40 -45 72 -21 31 -38 62 -38
68 0 5 -4 10 -9 10 -5 0 -14 14 -21 30 -7 17 -16 30 -21 30 -5 0 -9 4 -9 10 0
5 -31 59 -70 121 -38 61 -70 113 -70 115 0 3 -5 10 -10 17 -20 22 -240 379
-240 388 0 5 -4 9 -9 9 -5 0 -13 10 -17 23 -4 12 -10 24 -14 27 -5 4 -50 75
-105 168 -6 9 -27 43 -48 75 -20 31 -37 59 -37 62 0 3 -7 13 -15 22 -8 10 -15
22 -14 27 0 5 -3 12 -8 15 -25 18 -40 57 -30 79 6 12 14 22 19 22 4 0 8 6 8
14 0 8 6 21 13 28 12 13 29 41 51 83 6 11 20 34 31 50 11 17 25 39 32 50 83
138 121 201 158 260 24 39 44 76 45 83 0 6 4 12 9 12 5 0 16 15 26 33 18 35
58 103 75 127 10 15 50 80 122 200 21 36 57 94 78 129 22 34 40 66 40 70 0 4
8 16 18 27 9 11 26 35 36 54 10 19 33 57 50 84 17 27 30 53 28 58 -1 4 3 8 8
8 6 0 15 10 20 23 10 23 18 35 63 104 15 24 25 43 22 43 -4 0 0 6 7 14 22 22
41 53 39 61 -2 4 1 11 6 14 13 9 58 85 55 94 -1 4 2 7 8 7 5 0 18 16 27 35 30
58 106 180 117 187 6 4 7 8 3 8 -5 0 1 12 12 26 12 15 21 33 21 40 0 8 4 14 9
14 8 0 41 60 41 74 0 4 -9 2 -19 -4 -14 -7 -22 -7 -26 0 -4 6 -11 7 -18 3 -15
-9 -57 -10 -63 -1 -3 4 -16 3 -29 -2 -14 -5 -27 -5 -30 0 -3 5 -18 5 -35 0
-19 -5 -30 -5 -30 1 0 6 -6 7 -12 3 -7 -5 -22 -8 -33 -8 -11 0 -26 3 -33 8 -6
4 -18 4 -24 -1 -19 -11 -37 -12 -44 -2 -3 6 -11 5 -20 -2 -8 -7 -14 -7 -14 -1
0 6 -13 7 -35 2 -19 -4 -37 -4 -40 0 -3 5 -19 5 -35 0 -19 -5 -30 -5 -30 1 0
6 -6 7 -12 3 -7 -5 -22 -8 -33 -8 -11 0 -26 3 -33 8 -6 4 -18 4 -24 -1 -19
-11 -37 -12 -44 -2 -3 6 -11 5 -20 -2 -8 -7 -14 -7 -14 -1 0 6 -13 7 -35 2
-19 -4 -37 -4 -40 0 -3 5 -19 5 -35 0 -19 -5 -30 -5 -30 1 0 6 -6 7 -12 3 -15
-10 -48 -13 -48 -5 0 3 -15 5 -32 4 -18 -1 -43 -2 -56 -2 -12 -1 -21 -4 -20
-8 1 -5 -14 -34 -35 -66 -20 -31 -37 -60 -37 -62 0 -3 -21 -37 -47 -77 -64
-100 -83 -130 -89 -150 -4 -10 -10 -18 -14 -18 -4 0 -10 -8 -13 -17 -3 -10
-47 -83 -97 -163 -50 -80 -96 -156 -103 -170 -6 -14 -17 -31 -24 -38 -7 -7
-13 -17 -13 -22 0 -5 -6 -15 -12 -22 -7 -7 -22 -29 -32 -48 -11 -19 -31 -53
-45 -75 -14 -22 -24 -43 -23 -47 1 -5 -1 -8 -6 -8 -4 0 -16 -17 -27 -37 -11
-21 -22 -40 -25 -43 -3 -3 -26 -39 -50 -80 -25 -41 -52 -83 -61 -93 -15 -16
-16 -16 -28 10 -7 16 -12 30 -11 32 1 2 -3 7 -8 10 -11 7 -46 62 -66 107 -8
17 -22 36 -30 44 -9 7 -16 19 -16 26 0 8 -4 14 -10 14 -5 0 -10 6 -10 14 0 8
-7 22 -16 30 -8 9 -13 16 -9 16 3 0 1 6 -5 13 -27 32 -68 102 -64 109 3 4 0 8
-6 8 -6 0 -18 16 -26 35 -8 19 -19 35 -24 35 -6 0 -10 4 -10 9 0 9 -99 180
-110 191 -5 5 -21 33 -44 75 -6 11 -28 46 -49 78 -20 31 -37 62 -37 67 0 6 -5
10 -11 10 -5 0 -7 5 -4 10 3 6 2 10 -2 10 -5 0 -17 17 -28 38 -11 20 -22 39
-25 42 -3 3 -12 19 -20 35 -8 17 -21 34 -28 38 -7 5 -10 12 -7 18 4 5 2 9 -3
9 -5 0 -19 20 -32 45 -24 47 -64 82 -75 65 -4 -6 -13 -7 -22 -1 -9 4 -31 5
-49 1 -20 -5 -34 -4 -34 2 0 5 -6 6 -12 2 -16 -10 -48 -13 -48 -5 0 8 -77 4
-90 -4 -6 -3 -10 -1 -10 6 0 7 -5 8 -12 3 -12 -8 -33 -10 -48 -4 -15 6 -50 6
-50 0 0 -8 -49 -5 -57 3 -2 3 -17 2 -32 -3 -16 -4 -34 -4 -40 0 -7 4 -30 4
-52 0 -22 -4 -42 -4 -44 1 -3 4 -19 4 -35 -1 -20 -6 -30 -5 -30 2 0 7 -4 7
-13 0 -7 -6 -19 -7 -26 -3 -7 5 -28 5 -47 1 -20 -5 -34 -4 -34 2 0 5 -5 6 -12
2 -17 -11 -58 -11 -65 -1 -2 4 -10 4 -17 -2 -6 -5 -18 -6 -25 -2 -7 5 -28 5
-46 1 -21 -5 -38 -3 -44 3 -8 8 -11 5 -11 -8z"/>
<path d="M6413 18359 l-22 -8 0 -455 c1 -250 -2 -460 -6 -465 -3 -6 -3 -11 2
-11 9 0 8 -2634 -2 -2650 -3 -5 -3 -10 2 -10 4 0 7 -173 6 -384 l-2 -384 757
3 c416 1 775 5 796 8 69 11 110 18 141 23 17 4 36 7 43 7 6 0 12 4 12 8 0 4 8
6 18 4 9 -1 22 0 27 4 6 3 15 6 20 8 48 10 58 13 230 75 17 6 33 16 37 22 4 6
8 8 8 3 0 -4 12 1 27 10 15 10 27 17 28 15 0 -6 40 12 53 25 8 7 18 11 23 8 5
-4 9 -2 9 2 0 5 12 14 28 20 15 7 36 18 47 25 11 7 49 32 85 55 36 24 70 47
77 53 7 5 15 10 18 10 3 0 14 8 24 18 37 33 50 42 61 42 6 0 8 5 5 10 -3 6 -2
10 2 10 5 0 21 10 37 23 33 26 176 165 176 171 0 2 19 23 41 47 56 59 114 136
185 244 32 50 64 93 69 97 6 4 6 8 1 8 -4 0 0 12 10 28 23 35 87 163 90 181 2
8 8 17 14 21 7 4 10 9 9 11 -5 8 54 159 62 159 5 0 6 6 3 14 -3 8 -1 23 5 34
5 10 12 30 15 43 3 13 14 58 25 100 11 42 22 93 25 115 4 22 9 51 12 64 20 94
32 417 19 530 -2 19 -6 62 -9 95 -7 74 -32 203 -61 315 -3 14 -7 30 -8 35 -2
6 -5 15 -8 20 -3 6 -11 30 -19 55 -7 25 -18 59 -25 75 -7 17 -16 40 -19 52 -4
12 -22 53 -41 92 -19 40 -35 78 -35 86 0 8 -5 15 -11 15 -5 0 -7 5 -4 10 3 6
1 10 -4 10 -6 0 -11 6 -11 14 0 8 -3 16 -7 18 -7 3 -37 55 -67 115 -6 13 -14
23 -18 23 -5 0 -8 7 -8 15 0 8 -4 15 -10 15 -5 0 -10 6 -10 13 0 8 -9 22 -20
32 -11 10 -20 22 -20 26 0 5 -6 17 -14 26 -8 10 -36 45 -62 78 -27 33 -54 64
-61 68 -7 4 -13 15 -13 22 0 8 -7 15 -15 15 -8 0 -15 4 -15 8 0 16 -183 189
-232 219 -16 10 -28 21 -28 25 0 4 -13 14 -29 23 -16 8 -35 21 -43 28 -7 7
-39 29 -70 47 -32 19 -58 38 -58 42 0 5 -9 8 -19 8 -11 0 -21 3 -23 8 -1 4
-39 25 -83 46 -44 22 -87 43 -95 48 -8 4 -22 11 -30 14 -8 3 -24 9 -35 14 -25
10 -58 23 -65 25 -28 7 -87 29 -96 36 -6 5 -13 6 -16 4 -3 -3 -18 0 -34 6 -16
6 -42 13 -59 16 -41 7 -60 11 -60 13 0 3 -42 10 -82 12 -24 2 -43 5 -43 9 0 6
-57 11 -142 13 -32 0 -58 5 -58 10 0 4 -6 3 -14 -3 -10 -8 -16 -9 -21 -1 -3 6
-13 7 -23 2 -21 -9 -43 -9 -59 1 -7 5 -19 5 -25 0 -19 -11 -37 -12 -44 -2 -4
6 -11 6 -19 -1 -9 -8 -15 -8 -20 0 -4 6 -12 7 -24 1 -9 -5 -23 -6 -30 -1 -8 4
-26 4 -41 0 -15 -4 -33 -4 -40 0 -6 4 -27 4 -46 0 -20 -5 -34 -4 -34 2 0 5 -6
6 -12 2 -16 -10 -48 -13 -48 -5 0 8 -77 4 -90 -4 -6 -3 -10 -1 -10 6 0 7 -5 8
-12 3 -12 -8 -33 -10 -48 -4 -15 6 -50 6 -50 0 0 -8 -49 -5 -57 3 -2 3 -17 2
-32 -3 -16 -4 -34 -4 -40 0 -7 4 -30 4 -52 0 -22 -4 -42 -4 -44 1 -3 4 -19 4
-35 -1 -20 -6 -30 -5 -30 2 0 7 -4 7 -13 0 -7 -6 -19 -7 -26 -3 -7 5 -28 5
-47 1 -20 -5 -34 -4 -34 2 0 5 -5 6 -12 2 -17 -11 -58 -11 -65 -1 -2 4 -10 4
-17 -2 -6 -6 -18 -6 -25 -2 -8 5 -26 5 -41 1 -15 -4 -33 -4 -41 0 -8 4 -24 4
-36 -1z m1157 -902 c0 -5 5 -5 11 -1 9 5 143 9 159 4 6 -2 115 -12 153 -13 15
-1 27 -6 27 -11 0 -5 3 -7 6 -3 7 6 93 -17 144 -40 149 -65 305 -161 353 -216
9 -11 17 -17 17 -14 0 3 30 -26 67 -66 37 -40 71 -73 75 -75 5 -2 8 -10 8 -17
0 -7 4 -15 9 -17 13 -5 111 -158 111 -173 0 -8 4 -15 8 -17 20 -8 111 -247
128 -338 13 -70 17 -90 22 -125 12 -88 5 -303 -12 -395 -11 -62 -31 -141 -40
-162 -4 -9 -9 -22 -10 -30 -2 -7 -6 -20 -9 -28 -22 -53 -30 -76 -29 -82 1 -5
-2 -8 -8 -8 -5 0 -10 -5 -10 -10 0 -22 -80 -170 -92 -170 -4 0 -8 -5 -8 -12 0
-11 -65 -101 -99 -138 -75 -81 -131 -137 -131 -132 0 4 -11 -4 -25 -18 -33
-34 -53 -50 -61 -50 -4 0 -17 -8 -28 -19 -62 -56 -297 -156 -396 -168 -25 -3
-49 -8 -55 -12 -5 -4 -40 -6 -77 -6 -38 0 -68 -2 -68 -5 0 -7 -106 -3 -119 4
-6 4 -11 4 -11 -1 0 -9 -134 -8 -149 2 -6 3 -11 3 -11 -2 0 -13 -130 -3 -131
10 -3 72 0 2548 4 2554 7 10 277 11 277 0z"/>
<path d="M10357 18362 c-4 -6 -15 -8 -23 -5 -9 3 -19 1 -23 -5 -3 -5 -6 -207
-5 -449 l0 -438 52 0 c29 0 52 -3 52 -8 0 -4 5 -5 11 -2 15 10 189 12 189 2 0
-4 5 -5 10 -2 16 10 110 12 110 2 0 -4 5 -5 11 -2 15 10 189 12 189 2 0 -4 5
-5 10 -2 16 10 110 12 110 2 0 -4 5 -5 12 -1 7 4 29 7 50 5 25 -1 38 3 39 11
1 7 2 33 3 58 0 25 5 51 10 59 6 10 6 12 -2 7 -7 -4 -12 -1 -12 9 0 10 5 13
13 9 9 -6 9 -4 1 7 -16 21 -18 82 -2 73 10 -6 10 -4 2 7 -16 21 -18 82 -2 73
10 -6 10 -4 2 7 -16 21 -18 82 -2 73 10 -6 10 -4 2 7 -12 16 -13 267 -1 286 4
6 4 14 -1 17 -5 3 -8 45 -7 93 1 91 -8 117 -36 103 -8 -5 -21 -5 -28 -1 -7 5
-30 5 -52 1 -22 -4 -42 -4 -44 1 -3 4 -19 4 -35 -1 -19 -5 -30 -5 -30 1 0 6
-6 7 -12 3 -7 -5 -22 -8 -33 -8 -11 0 -26 3 -33 8 -6 4 -18 4 -24 -1 -19 -11
-37 -12 -44 -2 -4 6 -11 6 -19 -1 -9 -8 -15 -8 -20 0 -4 6 -12 7 -24 1 -9 -5
-23 -6 -30 -1 -8 4 -26 4 -41 0 -15 -4 -33 -4 -40 0 -6 4 -27 4 -46 0 -20 -5
-34 -4 -34 2 0 5 -6 6 -12 2 -16 -10 -48 -13 -48 -5 0 8 -76 4 -89 -4 -5 -3
-11 0 -13 7 -3 9 -6 9 -11 0z"/>
<path d="M14560 18361 c0 -6 -7 -8 -15 -5 -10 4 -15 0 -15 -11 0 -9 -4 -14 -8
-11 -5 3 -8 -8 -7 -24 1 -17 -2 -30 -7 -30 -4 0 -8 -7 -8 -15 0 -9 -9 -40 -19
-70 -11 -30 -17 -55 -15 -55 2 0 -3 -14 -11 -30 -9 -17 -13 -35 -10 -40 3 -6
2 -10 -2 -10 -8 0 -12 -15 -15 -57 -1 -7 -5 -13 -9 -13 -4 0 -10 -17 -15 -37
-9 -44 -8 -43 -18 -65 -4 -9 -8 -22 -10 -30 -1 -7 -5 -19 -9 -25 -5 -7 -6 -13
-3 -13 2 0 -9 -39 -26 -87 -17 -49 -31 -95 -32 -103 -1 -8 -5 -22 -8 -30 -3
-8 -17 -53 -32 -100 -14 -47 -35 -115 -46 -152 -12 -37 -21 -70 -21 -73 1 -3
-6 -19 -15 -36 -9 -19 -11 -28 -4 -24 7 4 4 -4 -5 -19 -10 -14 -14 -26 -10
-26 4 0 3 -6 -3 -12 -5 -7 -13 -29 -18 -48 -9 -41 -9 -40 -16 -60 -14 -40
-111 -354 -114 -367 -3 -16 -24 -84 -32 -103 -3 -8 -6 -19 -7 -25 0 -5 -6 -20
-13 -31 -6 -12 -9 -24 -6 -27 3 -3 -2 -19 -11 -36 -8 -17 -13 -31 -11 -31 3 0
-9 -39 -25 -87 -16 -49 -30 -90 -30 -93 -2 -8 -7 -22 -25 -80 -19 -58 -23 -74
-26 -102 -1 -10 -5 -18 -8 -18 -5 0 -24 -62 -36 -115 -1 -5 -9 -30 -18 -54 -9
-24 -13 -47 -10 -52 3 -5 1 -9 -4 -9 -9 0 -23 -51 -21 -74 0 -5 -3 -12 -8 -15
-8 -5 -18 -35 -37 -111 -3 -8 -9 -27 -14 -41 -6 -15 -8 -30 -5 -33 4 -3 0 -6
-7 -6 -7 0 -10 -3 -7 -6 3 -4 2 -15 -3 -25 -6 -10 -11 -29 -12 -43 -1 -15 -6
-26 -10 -26 -4 0 -5 -6 -2 -14 3 -8 1 -17 -5 -21 -6 -3 -11 -16 -11 -29 0 -12
-5 -27 -12 -34 -7 -7 -9 -12 -6 -12 4 0 0 -16 -8 -35 -8 -19 -11 -35 -8 -35 4
0 1 -7 -6 -15 -6 -8 -9 -19 -5 -25 3 -5 1 -10 -4 -10 -6 0 -11 -10 -11 -23 0
-13 -3 -27 -7 -31 -7 -6 -13 -29 -15 -53 -1 -7 -5 -13 -10 -13 -5 0 -6 -4 -3
-10 3 -5 3 -16 -2 -22 -4 -7 -8 -15 -8 -18 -2 -10 -36 -125 -42 -140 -7 -18
-10 -28 -17 -55 -2 -11 -10 -33 -16 -50 -12 -31 -22 -70 -23 -92 0 -7 -4 -13
-8 -13 -7 0 -24 -68 -21 -82 1 -5 -2 -8 -6 -8 -4 0 -8 -8 -9 -17 -1 -10 -7
-31 -14 -48 -12 -27 -17 -49 -21 -82 -1 -7 -4 -13 -7 -13 -4 0 -8 -12 -9 -27
-1 -15 -5 -29 -10 -32 -4 -3 -8 -15 -10 -26 -2 -11 -9 -37 -17 -57 -8 -21 -13
-38 -10 -38 2 0 -3 -16 -11 -35 -8 -19 -14 -38 -14 -42 0 -18 -13 -49 -24 -55
-8 -6 -6 -11 4 -18 11 -7 11 -10 2 -10 -7 0 -10 -4 -7 -10 3 -5 2 -10 -3 -10
-5 0 -9 -6 -10 -12 -2 -22 -7 -43 -15 -55 -4 -6 -4 -14 0 -16 5 -3 216 -5 470
-5 l462 0 10 31 c6 18 10 35 8 38 -1 3 4 13 12 22 7 10 11 17 8 17 -4 0 1 19
9 43 9 23 17 49 19 57 2 8 4 16 5 18 2 1 4 7 5 12 1 6 3 11 5 13 1 1 3 9 5 17
2 8 6 24 9 35 2 11 11 39 19 62 9 22 13 44 10 47 -4 3 -1 6 6 6 8 0 11 7 7 15
-3 8 -1 15 4 15 5 0 7 9 5 20 -2 11 0 20 6 20 5 0 9 11 9 25 0 14 5 25 11 25
5 0 7 5 4 10 -3 6 -3 16 2 23 4 6 8 18 9 25 4 23 38 127 43 132 6 5 7 14 13
63 1 9 5 17 8 17 4 0 7 6 7 13 2 19 36 131 42 137 3 3 7 16 9 30 1 14 7 26 12
28 5 2 6 10 3 18 -3 8 0 21 7 29 7 8 9 15 5 15 -4 0 -2 7 5 15 7 8 10 15 6 15
-3 0 1 16 9 36 8 20 15 45 15 55 0 11 4 19 8 19 4 0 9 8 10 18 2 20 10 56 12
60 2 1 3 5 5 10 1 4 4 14 8 22 5 14 69 219 72 230 13 59 18 77 23 85 7 11 12
32 14 53 1 6 5 12 10 12 5 0 7 3 5 8 -3 4 0 18 6 32 6 14 11 32 11 40 1 8 4
20 7 25 7 11 49 149 54 176 2 8 10 32 19 52 8 21 15 40 15 42 2 23 25 95 31
95 4 0 6 11 5 25 -2 14 1 25 6 25 5 0 9 6 9 14 0 15 25 100 46 159 8 20 11 37
8 37 -4 0 -1 6 5 13 6 8 8 17 4 20 -3 4 -1 7 5 7 6 0 9 9 7 20 -2 11 0 20 4
20 5 0 11 14 14 30 7 36 10 46 26 83 6 16 9 33 5 38 -3 5 -1 9 4 9 8 0 10 6
14 50 1 11 5 20 9 20 4 0 10 15 14 33 4 17 9 34 10 37 4 13 29 96 31 106 1 6
5 21 9 34 l7 22 12 -24 c14 -27 40 -108 41 -125 0 -6 4 -15 8 -19 4 -4 7 -17
7 -29 0 -11 4 -25 9 -31 6 -5 12 -20 15 -34 14 -70 19 -90 25 -90 4 0 8 -8 9
-17 3 -30 7 -48 14 -58 3 -5 9 -26 14 -45 10 -44 9 -42 18 -62 4 -9 9 -22 10
-30 1 -7 13 -47 26 -88 14 -41 25 -77 25 -80 0 -3 4 -11 8 -17 5 -7 5 -17 2
-23 -3 -5 -2 -10 4 -10 5 0 8 -8 7 -17 -2 -10 0 -20 4 -23 5 -3 10 -16 11 -30
2 -14 7 -28 12 -31 4 -3 9 -20 10 -37 1 -18 5 -32 10 -32 4 0 7 -11 7 -24 0
-14 5 -28 11 -31 5 -4 8 -12 6 -18 -2 -7 2 -24 9 -38 7 -15 10 -29 7 -33 -4
-3 -1 -6 6 -6 7 0 10 -4 6 -9 -3 -5 -1 -20 4 -33 23 -57 30 -80 33 -110 1 -10
6 -18 11 -18 4 0 5 -4 2 -10 -3 -5 -1 -10 5 -10 6 0 8 -5 5 -10 -6 -10 13 -78
27 -94 4 -6 8 -23 8 -38 0 -15 4 -28 8 -28 7 0 11 -16 14 -57 1 -7 5 -13 10
-13 5 0 7 -4 3 -9 -3 -5 -1 -12 5 -16 6 -4 8 -11 4 -16 -3 -5 -1 -16 5 -23 6
-7 12 -25 13 -40 1 -14 5 -26 9 -26 3 0 6 -6 7 -12 2 -27 26 -113 32 -118 4
-3 10 -16 13 -30 3 -14 8 -36 12 -50 4 -14 7 -31 7 -37 1 -7 6 -13 11 -13 5 0
7 -9 4 -19 -3 -11 1 -22 9 -25 7 -3 11 -11 8 -19 -2 -7 1 -27 7 -43 7 -16 13
-32 14 -36 2 -5 4 -11 5 -15 1 -5 2 -11 1 -15 0 -4 7 -24 16 -45 9 -21 16 -44
14 -50 -1 -7 4 -13 11 -13 9 0 9 -3 -2 -10 -10 -6 -11 -10 -3 -10 7 0 12 -3
12 -7 -1 -5 0 -10 1 -13 1 -3 3 -13 5 -23 2 -10 7 -26 11 -35 8 -20 14 -40 16
-64 1 -10 6 -18 10 -18 4 0 8 -10 8 -23 0 -13 3 -27 7 -31 4 -3 8 -14 10 -24
6 -31 8 -37 16 -49 5 -7 5 -17 2 -23 -3 -5 -2 -10 3 -10 5 0 9 -6 10 -12 1
-24 11 -57 22 -77 6 -12 9 -21 6 -21 -3 0 2 -16 10 -35 8 -19 14 -37 14 -40 0
-5 1 -8 5 -22 1 -5 5 -21 10 -38 4 -16 10 -34 14 -40 3 -5 7 -19 8 -29 2 -11
8 -25 13 -31 5 -7 7 -14 4 -17 -3 -3 1 -22 9 -41 l15 -35 486 0 487 0 14 35
c8 19 14 37 13 41 -1 4 4 20 10 35 7 16 10 32 7 37 -3 4 1 10 9 13 8 3 12 16
11 31 -2 14 1 26 7 26 6 0 8 7 4 15 -3 8 -1 15 5 15 6 0 7 5 4 10 -3 6 -1 10
5 10 6 0 9 4 6 9 -5 7 0 26 22 91 8 23 9 29 11 46 0 8 5 13 9 10 4 -2 7 8 6
22 0 15 3 29 7 32 4 3 11 21 14 40 3 19 9 39 14 45 4 5 7 19 7 30 -1 11 3 23
7 26 8 6 23 55 34 112 3 15 8 27 12 27 6 0 10 17 13 58 1 6 6 12 11 12 6 0 8
3 4 6 -3 4 0 22 8 40 8 19 14 37 15 39 0 3 0 6 1 8 0 1 2 12 4 23 3 12 10 34
16 50 7 16 11 33 10 37 0 4 4 17 10 28 10 19 17 44 23 79 1 8 8 29 15 45 7 17
13 38 14 48 1 9 4 17 7 17 4 0 7 6 8 13 0 6 3 23 7 37 4 14 7 31 7 38 1 6 4
12 8 12 3 0 6 8 7 18 2 28 7 47 15 52 4 3 9 17 11 30 2 14 7 33 10 43 4 9 10
25 14 35 6 18 9 29 11 50 1 7 6 11 11 8 4 -3 6 5 4 18 -3 13 0 27 6 30 5 4 8
13 4 21 -3 8 -1 15 4 15 5 0 10 6 11 13 1 12 9 47 12 57 1 3 2 9 1 14 -1 4 4
14 10 22 6 8 8 14 4 14 -4 0 -2 7 5 15 7 8 9 15 5 15 -4 0 -2 7 5 15 7 8 9 15
5 15 -4 0 -2 7 5 15 7 8 10 15 6 15 -3 0 0 16 8 35 9 20 15 38 16 40 0 3 0 6
1 8 0 1 2 10 4 19 2 9 10 31 18 48 9 16 11 30 6 30 -5 0 -6 7 0 18 20 39 31
69 35 96 3 16 9 32 13 35 4 3 9 19 10 35 1 16 6 32 10 35 5 3 8 13 8 21 -1 8
7 34 17 58 11 28 13 40 5 36 -9 -6 -9 -5 0 7 16 20 43 101 37 111 -3 4 0 8 6
8 7 0 10 7 6 15 -3 8 -1 15 5 15 6 0 8 4 5 9 -4 5 0 12 6 14 10 4 10 6 0 6
-10 1 -9 6 2 24 8 12 15 25 16 30 0 4 1 9 1 12 14 54 32 111 38 120 4 6 7 17
6 25 -1 8 3 24 9 35 6 11 11 22 11 25 1 3 5 22 9 43 5 20 13 40 19 44 6 3 7 1
3 -5 -4 -7 -2 -12 4 -12 6 0 9 -4 6 -8 -3 -5 1 -20 9 -35 8 -15 16 -40 18 -56
3 -17 9 -36 13 -43 5 -7 9 -17 9 -23 1 -5 7 -30 15 -55 7 -25 14 -48 14 -52 1
-3 4 -9 8 -13 4 -4 4 -13 1 -21 -3 -8 0 -14 6 -14 6 0 11 -11 11 -23 0 -13 3
-27 7 -31 4 -4 9 -19 11 -34 2 -15 7 -31 13 -36 5 -6 9 -19 9 -30 0 -12 7 -34
15 -49 8 -15 9 -25 4 -21 -6 3 -5 -4 2 -17 8 -13 14 -28 15 -34 0 -5 6 -22 12
-37 6 -15 13 -38 15 -52 1 -14 6 -28 10 -32 4 -4 7 -16 7 -26 0 -10 5 -18 11
-18 5 0 8 -4 5 -8 -5 -9 38 -163 55 -195 5 -10 7 -22 4 -27 -4 -6 -2 -10 3
-10 5 0 9 -6 10 -12 5 -45 16 -78 24 -78 5 0 6 -4 3 -10 -3 -5 1 -23 10 -40 8
-16 13 -30 11 -30 -3 0 1 -18 9 -39 7 -22 11 -42 8 -45 -4 -3 -1 -6 6 -6 7 0
10 -4 6 -9 -3 -5 -1 -12 5 -16 6 -4 8 -11 4 -16 -3 -5 0 -16 6 -24 7 -8 9 -15
5 -15 -4 0 -1 -7 6 -17 8 -9 13 -19 11 -22 -4 -6 14 -71 29 -106 4 -11 14 -40
20 -65 15 -54 14 -51 22 -70 7 -16 26 -89 28 -105 0 -5 4 -14 9 -20 9 -11 23
-73 18 -78 -2 -2 3 -11 11 -20 7 -10 11 -17 8 -17 -3 0 0 -15 8 -34 8 -18 11
-36 8 -40 -4 -3 -2 -6 4 -6 5 0 10 -6 11 -12 1 -20 8 -43 32 -108 6 -19 12
-43 12 -52 -1 -10 3 -18 7 -18 4 0 8 -6 8 -12 0 -7 11 -47 23 -88 13 -41 24
-77 25 -80 0 -3 11 -38 24 -78 13 -40 24 -78 25 -85 2 -7 6 -20 10 -29 4 -9 9
-25 11 -35 2 -10 4 -19 5 -20 3 -3 3 -3 15 -48 4 -16 12 -36 18 -42 5 -7 7
-13 3 -13 -3 0 -1 -12 5 -27 6 -16 12 -36 14 -46 2 -10 14 -45 25 -77 12 -33
22 -69 23 -80 1 -11 8 -22 17 -24 8 -3 198 -5 422 -4 223 0 411 -3 417 -7 6
-3 11 -2 11 3 0 13 33 10 42 -3 5 -6 8 -5 8 3 0 6 7 12 15 12 8 0 15 5 15 10
0 6 -5 10 -11 10 -5 0 -8 4 -5 9 3 5 0 21 -8 36 -8 15 -13 36 -11 46 2 11 0
19 -6 19 -5 0 -9 11 -9 24 0 14 -5 28 -11 31 -6 4 -8 13 -5 21 3 7 1 16 -5 19
-5 4 -7 10 -4 14 2 5 -2 16 -9 27 -8 10 -12 24 -9 31 3 7 1 13 -5 13 -5 0 -10
11 -11 25 -3 48 -4 54 -13 49 -7 -5 -13 27 -9 50 1 5 -3 12 -10 16 -6 4 -11
19 -11 34 0 14 -4 26 -8 26 -3 0 -7 6 -8 13 0 6 -3 19 -5 27 -6 23 -38 133
-43 150 -3 8 -5 16 -5 17 0 2 -7 19 -15 38 -8 20 -12 40 -9 45 4 6 1 10 -6 10
-7 0 -9 3 -6 7 4 3 3 11 -2 17 -6 6 -12 23 -14 36 -2 14 -9 36 -14 50 -6 14
-9 28 -6 33 2 4 -1 7 -8 7 -7 0 -10 3 -6 6 3 3 -1 27 -9 52 -8 26 -16 52 -18
57 -23 83 -39 134 -47 150 -5 11 -11 30 -12 43 0 12 -5 22 -10 22 -5 0 -7 9
-4 20 3 11 0 20 -6 20 -6 0 -7 3 -4 7 4 3 1 13 -6 21 -10 13 -9 14 1 8 7 -4 3
9 -8 29 -11 19 -20 47 -20 60 0 14 -4 25 -8 25 -5 0 -9 7 -9 15 0 17 -21 91
-35 120 -5 12 -10 27 -12 35 -13 68 -19 90 -25 90 -6 0 -11 21 -14 63 -1 9 -4
17 -7 17 -5 0 -12 22 -35 110 -1 3 -5 13 -9 22 -4 9 -9 23 -10 32 -1 8 -5 19
-9 22 -4 4 -7 17 -7 29 0 12 -3 25 -7 29 -4 3 -8 15 -10 26 -5 36 -8 45 -15
50 -4 3 -9 17 -12 30 -3 14 -9 40 -15 58 -5 17 -7 32 -3 32 4 0 2 4 -4 8 -7 4
-14 18 -15 32 -2 14 -7 27 -11 30 -4 3 -8 22 -10 42 -1 20 -5 35 -8 33 -7 -4
-34 93 -30 109 1 5 -3 12 -9 15 -5 4 -13 22 -16 40 -3 19 -10 42 -16 52 -5 11
-7 19 -3 19 3 0 2 6 -4 13 -10 12 -22 54 -24 85 -1 6 -5 12 -9 12 -4 0 -6 8
-5 17 2 10 -3 23 -10 31 -7 7 -11 19 -7 27 3 9 0 21 -6 28 -6 8 -12 22 -15 33
-12 61 -20 85 -27 90 -5 3 -7 10 -3 15 3 5 1 15 -4 22 -10 13 -27 77 -24 90 1
4 -3 7 -8 7 -6 0 -10 13 -10 28 0 15 -4 32 -9 38 -9 8 -21 52 -23 82 -1 6 -6
12 -11 12 -6 0 -8 3 -5 6 4 3 0 21 -8 40 -8 19 -11 34 -8 34 4 0 1 7 -6 15 -7
8 -9 15 -5 15 4 0 2 7 -5 15 -7 8 -10 15 -7 15 3 0 -5 32 -18 70 -13 39 -21
70 -18 70 3 0 0 6 -6 13 -6 8 -13 24 -15 38 -3 13 -5 24 -6 24 -2 0 -11 38
-12 53 -1 6 -4 12 -8 12 -4 0 -7 6 -7 13 0 6 -9 41 -20 77 -12 36 -23 74 -25
85 -1 11 -6 22 -10 25 -4 3 -8 17 -10 32 -2 15 -7 30 -11 34 -4 4 -7 17 -7 29
0 11 -4 25 -9 31 -6 5 -12 20 -14 34 -2 14 -7 33 -11 42 -4 9 -9 25 -11 35 -2
10 -4 19 -5 21 -2 1 -4 7 -5 12 -1 6 -4 13 -5 18 -1 4 -2 11 -1 16 1 4 -2 13
-7 20 -5 6 -15 34 -22 61 -7 28 -18 56 -24 64 -9 12 -8 13 3 6 9 -5 12 -4 7 3
-4 6 -20 10 -37 8 -16 -2 -32 1 -35 6 -3 5 -11 4 -19 -2 -9 -7 -15 -8 -19 -1
-4 7 -15 7 -31 1 -14 -5 -27 -5 -30 0 -3 5 -18 5 -35 0 -19 -5 -30 -5 -30 1 0
6 -6 7 -12 3 -7 -5 -22 -8 -33 -8 -11 0 -26 3 -33 8 -6 4 -18 4 -24 -1 -19
-11 -37 -12 -44 -2 -3 6 -11 5 -20 -2 -10 -8 -14 -8 -14 0 0 7 -8 8 -23 2 -13
-5 -30 -6 -37 -1 -7 4 -25 4 -40 0 -15 -4 -33 -4 -39 0 -7 4 -30 4 -52 0 -22
-4 -42 -4 -44 1 -3 4 -19 4 -35 -1 -20 -6 -30 -5 -30 2 0 7 -4 7 -13 0 -7 -6
-19 -7 -26 -3 -7 5 -28 5 -47 1 -20 -5 -34 -4 -34 2 0 5 -5 6 -12 2 -17 -11
-58 -11 -65 -1 -2 4 -10 4 -17 -2 -6 -6 -18 -6 -25 -1 -18 11 -67 -7 -69 -25
-1 -8 -3 -22 -4 -30 -1 -8 -6 -15 -11 -15 -6 0 -8 -3 -4 -6 3 -3 2 -17 -3 -30
-6 -14 -12 -37 -15 -52 -2 -15 -9 -28 -15 -30 -5 -2 -7 -8 -4 -13 3 -6 1 -15
-4 -22 -5 -7 -8 -22 -7 -34 1 -13 -2 -23 -6 -23 -4 0 -10 -7 -13 -16 -4 -9 -2
-13 5 -8 6 3 4 -5 -5 -18 -9 -13 -17 -36 -18 -51 -1 -15 -6 -27 -10 -27 -4 0
-7 -3 -6 -7 1 -5 -5 -28 -12 -53 -8 -25 -14 -47 -15 -50 -1 -3 -8 -25 -15 -50
-7 -25 -14 -48 -16 -52 -1 -5 -3 -10 -4 -13 -4 -8 -7 -24 -9 -41 0 -8 -5 -13
-9 -10 -5 3 -8 -5 -7 -17 1 -12 -4 -34 -12 -49 -7 -16 -12 -28 -9 -28 2 0 -6
-30 -19 -67 -13 -37 -22 -71 -19 -75 3 -4 0 -8 -7 -8 -7 0 -10 -3 -6 -6 3 -3
-3 -30 -13 -59 -10 -29 -16 -56 -13 -59 4 -3 2 -6 -4 -6 -5 0 -10 -6 -11 -12
-5 -39 -9 -55 -21 -76 -6 -12 -9 -27 -6 -32 3 -6 2 -10 -3 -10 -5 0 -9 -6 -10
-12 -1 -17 -5 -31 -27 -103 -11 -33 -18 -63 -17 -67 1 -5 -2 -8 -6 -8 -7 0
-11 -16 -14 -57 -1 -7 -5 -13 -10 -13 -5 0 -9 -8 -8 -17 3 -28 -11 -63 -23
-56 -6 3 -7 1 -3 -6 4 -6 -1 -37 -10 -69 -10 -31 -18 -60 -20 -64 -1 -5 -2 -9
-3 -10 -2 -2 -4 -14 -7 -28 -2 -14 -8 -34 -13 -45 -13 -28 -24 -58 -25 -70 -1
-5 -8 -30 -16 -55 -7 -25 -15 -49 -16 -55 -2 -5 -5 -19 -6 -30 -2 -11 -7 -23
-11 -26 -5 -4 -10 -18 -10 -33 -1 -14 -5 -26 -9 -26 -3 0 -9 -19 -13 -42 -4
-24 -11 -47 -14 -53 -4 -5 -18 -46 -30 -90 -12 -44 -25 -87 -28 -95 -4 -8 -7
-17 -8 -20 0 -3 -9 -32 -19 -65 -10 -33 -19 -66 -19 -72 0 -7 -4 -13 -9 -13
-4 0 -7 -3 -6 -7 2 -10 -13 -75 -20 -88 -4 -5 -7 -14 -8 -20 -2 -11 -43 -142
-51 -165 -3 -8 -7 -22 -9 -30 -2 -8 -12 -40 -22 -70 l-19 -55 -8 40 c-10 47
-9 42 -24 79 -6 15 -12 39 -13 52 -1 13 -6 24 -11 24 -5 0 -7 6 -4 13 2 6 0
20 -5 30 -9 17 -54 160 -63 197 -2 8 -4 16 -5 18 -2 1 -4 7 -5 12 -1 6 -4 13
-5 18 -2 4 -4 12 -5 17 -1 6 -4 17 -8 25 -17 47 -20 56 -22 70 -2 8 -12 42
-23 75 -11 32 -18 63 -16 67 3 4 0 8 -6 8 -7 0 -10 6 -7 14 3 8 2 16 -3 18 -5
2 -10 14 -12 28 -2 14 -7 31 -11 38 -5 6 -5 17 -2 22 3 6 1 10 -4 10 -6 0 -11
7 -11 15 0 9 -9 41 -20 72 -11 31 -18 58 -16 61 2 2 -2 15 -9 29 -8 15 -12 30
-9 35 3 4 1 8 -5 8 -5 0 -10 8 -10 18 1 9 -6 36 -15 60 -9 24 -14 47 -11 52 3
4 1 10 -5 12 -6 2 -12 12 -14 23 -3 11 -11 41 -19 68 -8 26 -13 47 -11 47 3 0
-1 10 -8 23 -6 12 -13 31 -15 42 -2 11 -7 29 -12 40 -5 11 -14 38 -20 60 -5
22 -14 51 -18 65 -4 14 -6 28 -5 33 1 4 -3 7 -9 7 -6 0 -9 7 -6 15 4 8 2 17
-3 20 -6 4 -10 16 -10 29 0 12 -5 27 -10 32 -6 6 -12 25 -13 42 -1 18 -5 32
-9 32 -5 0 -8 11 -8 25 0 14 -4 25 -8 25 -4 0 -9 8 -10 18 -3 25 -8 44 -19 72
-6 14 -8 29 -6 34 3 4 1 11 -5 15 -6 3 -12 20 -14 36 -2 17 -6 32 -10 35 -6 5
-18 50 -20 78 -1 6 -6 12 -11 12 -6 0 -8 3 -5 6 4 3 0 21 -8 40 -8 19 -11 34
-8 34 4 0 2 6 -4 13 -5 6 -12 23 -14 37 -1 14 -5 27 -8 30 -5 4 -18 46 -34
110 -2 8 -9 27 -15 43 -6 15 -8 27 -5 27 4 0 2 6 -4 13 -5 6 -12 23 -14 37 -1
14 -6 27 -10 30 -4 3 -8 17 -10 30 -2 14 -7 31 -11 38 -5 6 -5 17 -2 22 3 6 1
10 -4 10 -6 0 -10 3 -10 8 1 4 0 9 -1 12 -1 3 -3 13 -5 23 -2 10 -7 26 -11 35
-4 9 -8 23 -10 30 -1 8 -6 21 -10 30 -3 9 -8 27 -10 40 -3 28 -23 54 -35 46
-5 -3 -9 0 -9 7 0 8 -4 8 -13 1 -7 -6 -18 -7 -26 -3 -8 5 -26 5 -41 1 -15 -4
-33 -4 -40 0 -6 4 -27 4 -46 0 -20 -5 -34 -4 -34 2 0 5 -6 6 -12 2 -16 -10
-48 -13 -48 -5 0 8 -77 4 -90 -4 -6 -3 -10 -1 -10 6 0 7 -5 8 -12 3 -12 -8
-33 -10 -48 -4 -15 6 -50 6 -50 0 0 -8 -49 -5 -57 3 -2 3 -17 2 -32 -3 -16 -4
-34 -4 -40 0 -7 4 -30 4 -52 0 -22 -4 -42 -4 -44 1 -3 4 -19 4 -35 -1 -20 -6
-30 -5 -30 2 0 7 -4 7 -13 0 -7 -6 -19 -7 -26 -3 -7 5 -28 5 -47 1 -20 -5 -34
-4 -34 2 0 5 -6 6 -12 2 -7 -5 -22 -8 -33 -8 -11 0 -26 3 -33 8 -6 4 -12 3
-12 -3z"/>
<path d="M19685 18362 c-43 -4 -61 -12 -50 -20 15 -10 35 -50 35 -67 0 -8 5
-15 10 -15 6 0 10 -6 10 -14 0 -7 10 -26 22 -42 13 -16 16 -25 8 -20 -8 4 -7
1 4 -8 10 -8 15 -19 11 -25 -3 -6 -1 -11 4 -11 6 0 11 -7 11 -15 0 -8 5 -15
10 -15 6 0 10 -8 10 -17 0 -10 9 -29 20 -43 11 -14 20 -33 20 -42 0 -10 3 -18
8 -18 8 0 38 -61 34 -72 -1 -5 2 -8 7 -8 4 0 19 -25 32 -55 13 -30 26 -55 30
-55 3 0 12 -18 19 -40 7 -22 17 -40 22 -40 4 0 8 -7 8 -15 0 -8 5 -15 10 -15
6 0 9 -3 8 -7 -4 -12 26 -73 34 -73 5 0 8 -9 8 -20 0 -11 5 -20 10 -20 6 0 10
-9 10 -20 0 -11 5 -20 11 -20 5 0 8 -4 5 -9 -3 -5 1 -12 10 -15 9 -4 14 -9 11
-12 -3 -3 19 -52 48 -109 30 -56 51 -106 48 -109 -4 -3 2 -6 11 -6 10 0 16 -6
13 -12 -2 -7 4 -24 14 -37 10 -13 16 -27 13 -32 -3 -5 -2 -9 3 -9 4 0 19 -25
33 -55 14 -30 29 -55 33 -55 5 0 5 -4 2 -10 -3 -5 -1 -10 5 -10 6 0 8 -4 5
-10 -3 -5 -1 -10 5 -10 6 0 8 -4 5 -10 -3 -5 -1 -10 5 -10 6 0 8 -4 5 -10 -3
-5 -2 -10 2 -10 8 0 35 -58 32 -69 0 -2 3 -7 8 -10 4 -3 25 -40 46 -81 72
-142 102 -195 111 -201 5 -4 6 -11 2 -17 -3 -5 1 -15 9 -22 8 -7 12 -16 9 -21
-3 -5 0 -9 5 -9 6 0 11 -7 11 -15 0 -8 4 -15 8 -15 4 0 14 -16 21 -35 7 -19
16 -35 21 -35 5 0 7 -7 4 -15 -4 -8 -1 -15 6 -15 6 0 8 -4 5 -10 -3 -5 -1 -10
4 -10 6 0 11 -6 11 -14 0 -7 9 -25 20 -39 11 -14 20 -32 20 -41 0 -9 5 -16 11
-16 6 0 9 -5 7 -12 -3 -7 3 -20 11 -30 9 -10 16 -22 16 -26 1 -13 38 -77 49
-84 6 -4 8 -8 4 -8 -6 0 86 -185 103 -206 5 -6 6 -14 2 -17 -3 -4 -1 -7 5 -7
7 0 12 -9 12 -19 0 -11 4 -21 9 -23 5 -1 11 -10 13 -18 2 -8 5 -17 8 -20 3 -3
15 -23 26 -44 20 -36 21 -41 7 -75 -8 -20 -20 -39 -25 -42 -5 -3 -9 -9 -9 -13
1 -11 -12 -41 -21 -47 -5 -3 -10 -12 -12 -20 -1 -8 -8 -25 -16 -39 -8 -14 -13
-28 -12 -32 1 -5 -3 -8 -9 -8 -5 0 -8 -4 -5 -9 4 -5 1 -11 -6 -13 -6 -2 -13
-14 -15 -27 -2 -12 -10 -29 -18 -38 -8 -8 -13 -18 -10 -23 3 -5 2 -10 -2 -12
-5 -1 -17 -21 -28 -43 -10 -22 -26 -48 -35 -59 -8 -10 -14 -20 -12 -22 2 -3
-14 -36 -34 -74 -20 -38 -35 -72 -34 -76 1 -4 -2 -10 -7 -13 -11 -8 -49 -83
-45 -89 2 -3 0 -8 -5 -11 -11 -8 -75 -131 -68 -131 3 0 -4 -9 -16 -21 -11 -11
-18 -27 -15 -35 3 -8 2 -14 -3 -14 -9 0 -57 -91 -53 -102 1 -5 -2 -8 -7 -8 -5
0 -12 -14 -16 -30 -4 -17 -10 -28 -14 -25 -5 2 -14 -14 -21 -35 -7 -22 -17
-40 -22 -40 -4 0 -7 -3 -6 -7 2 -11 -14 -47 -24 -54 -5 -3 -11 -12 -13 -20 -9
-42 -18 -58 -28 -52 -6 4 -8 0 -4 -10 3 -9 2 -19 -3 -22 -6 -3 -24 -36 -42
-73 -17 -37 -36 -70 -41 -73 -5 -3 -8 -9 -8 -13 1 -3 -13 -34 -31 -69 -18 -34
-33 -64 -34 -67 -1 -3 -5 -15 -9 -27 -4 -13 -12 -20 -19 -16 -6 3 -8 2 -3 -2
4 -5 0 -19 -8 -31 -8 -13 -11 -25 -7 -27 4 -3 230 -5 503 -5 l496 0 21 44 c12
24 22 47 23 52 1 4 9 18 18 32 10 14 33 57 52 95 19 39 38 73 44 77 5 4 6 8 1
8 -5 0 -4 6 2 13 10 12 101 190 105 204 1 5 8 16 16 25 8 9 16 24 17 33 1 9 8
23 15 32 7 8 14 22 15 30 2 8 10 23 20 34 9 10 13 19 9 19 -4 0 0 9 9 19 10
11 15 25 11 30 -3 6 -2 11 3 11 8 0 27 32 31 55 1 6 8 17 16 25 7 8 16 25 19
38 4 12 12 22 17 22 5 0 9 9 9 19 0 11 6 26 13 33 6 7 13 20 15 28 2 8 8 18
14 21 5 3 9 8 8 10 -4 9 24 59 32 59 5 0 6 5 2 12 -4 6 1 17 11 25 11 7 16 13
12 13 -8 0 85 184 95 188 5 2 6 7 3 12 -3 5 2 15 10 24 9 8 16 18 15 21 0 13
35 75 42 75 5 0 6 5 3 10 -3 6 -1 10 4 10 6 0 11 5 11 11 0 5 -6 7 -12 4 -7
-4 -6 -1 2 7 9 7 24 32 34 56 11 23 23 42 28 42 4 0 7 3 6 8 -4 13 13 52 23
52 5 0 9 6 9 14 0 17 32 80 43 84 4 2 5 8 1 13 -3 5 0 9 6 9 7 0 10 6 7 14 -3
8 1 17 10 20 8 4 13 13 10 20 -3 8 1 17 10 20 8 4 13 13 9 21 -3 8 -1 15 5 15
5 0 15 14 20 30 6 17 16 30 22 30 6 0 7 3 4 6 -7 7 33 87 46 92 4 2 5 8 1 13
-3 5 0 9 6 9 6 0 9 4 5 10 -3 5 2 17 12 27 10 10 17 27 15 37 -3 11 0 16 7 12
6 -4 11 -2 11 3 0 22 2 26 17 44 9 9 12 17 8 17 -4 0 0 9 9 19 10 11 18 25 19
33 2 7 10 24 19 37 10 13 15 28 12 33 -3 4 0 8 5 8 6 0 11 6 11 14 0 8 6 21
13 28 11 11 29 47 28 55 0 2 15 30 34 64 19 33 35 67 35 75 0 8 6 17 13 20 7
2 13 14 14 25 1 12 10 28 20 36 10 8 11 11 3 7 -13 -6 -13 -5 0 12 9 10 22 33
30 49 8 17 30 56 47 88 18 33 33 65 33 72 0 7 3 15 8 17 9 4 108 201 103 207
-1 2 4 8 13 13 9 5 14 13 11 19 -4 5 -1 9 4 9 6 0 10 3 9 8 -2 10 25 66 37 74
5 4 6 10 3 14 -8 8 14 34 24 27 4 -2 5 3 2 11 -3 9 -2 16 3 16 5 0 9 9 10 20
1 11 9 27 17 36 9 8 16 21 16 28 0 8 7 19 15 26 8 7 15 21 15 31 0 11 5 19 10
19 6 0 10 3 9 8 -2 16 14 52 24 52 6 0 7 3 4 6 -6 6 20 62 34 74 6 6 16 31 17
44 0 5 4 12 9 15 4 3 35 60 68 126 33 66 62 122 65 125 3 3 36 68 75 145 38
77 73 143 78 146 4 3 10 12 12 20 9 38 18 59 26 59 5 0 9 9 9 20 0 11 5 20 11
20 5 0 7 5 4 10 -3 6 -1 10 4 10 6 0 11 12 11 26 0 22 -3 24 -14 15 -10 -8
-16 -9 -21 -1 -3 6 -11 7 -18 3 -16 -10 -58 -10 -64 0 -2 4 -10 4 -17 -2 -6
-6 -18 -6 -25 -2 -8 5 -26 5 -41 1 -15 -4 -33 -4 -39 0 -7 4 -30 4 -52 0 -22
-4 -42 -4 -44 1 -3 4 -19 4 -35 -1 -19 -5 -30 -5 -30 1 0 6 -6 7 -12 3 -16
-10 -50 -10 -66 0 -6 4 -18 4 -24 -1 -19 -11 -37 -12 -44 -2 -3 6 -11 5 -20
-2 -8 -7 -14 -7 -14 -1 0 6 -13 7 -35 2 -19 -4 -37 -4 -40 0 -3 5 -19 5 -35 0
-19 -5 -30 -5 -30 1 0 6 -6 7 -12 3 -7 -5 -22 -8 -33 -8 -11 0 -26 3 -33 8 -6
4 -18 4 -24 -1 -19 -11 -37 -12 -44 -2 -3 6 -11 5 -20 -2 -10 -8 -14 -8 -14 0
0 7 -8 8 -25 1 -15 -6 -26 -6 -30 0 -4 6 -11 10 -16 10 -6 0 -7 -4 -4 -10 3
-6 -1 -7 -9 -4 -10 4 -20 -3 -27 -20 -7 -14 -16 -26 -21 -26 -4 0 -7 -3 -6 -8
5 -12 -34 -92 -44 -92 -5 0 -7 -4 -3 -9 3 -5 -2 -17 -11 -25 -8 -9 -13 -16
-10 -16 2 0 -15 -38 -40 -85 -24 -47 -42 -85 -39 -85 3 0 -4 -9 -16 -21 -11
-11 -18 -27 -15 -34 2 -7 -2 -16 -10 -19 -9 -3 -12 -10 -9 -16 3 -5 1 -10 -5
-10 -6 0 -9 -4 -6 -9 3 -5 -1 -14 -9 -21 -8 -7 -12 -16 -10 -21 3 -4 -2 -12
-11 -17 -9 -5 -15 -12 -14 -16 2 -11 -62 -141 -72 -144 -4 -2 -6 -8 -3 -12 3
-5 -3 -18 -13 -28 -10 -10 -16 -24 -14 -30 2 -7 -1 -12 -8 -12 -6 0 -9 -4 -5
-9 3 -5 1 -12 -5 -16 -6 -4 -8 -11 -5 -16 4 -5 2 -9 -4 -9 -5 0 -26 -36 -47
-80 -21 -44 -42 -80 -47 -80 -4 0 -6 -4 -2 -9 3 -5 1 -12 -5 -16 -6 -4 -8 -11
-5 -16 4 -5 2 -9 -4 -9 -5 0 -15 -16 -22 -35 -7 -19 -17 -35 -22 -35 -4 0 -5
-4 -2 -10 3 -5 1 -10 -4 -10 -6 0 -10 -3 -9 -7 1 -5 -4 -21 -11 -38 -7 -16
-12 -32 -12 -35 0 -3 -7 -9 -15 -13 -8 -5 -12 -12 -9 -18 4 -5 1 -9 -5 -9 -6
0 -9 -4 -5 -9 3 -5 -1 -15 -8 -23 -15 -15 -31 -49 -29 -60 1 -5 -3 -8 -9 -8
-5 0 -7 -4 -4 -10 3 -5 2 -10 -3 -10 -5 0 -19 -25 -32 -55 -13 -30 -26 -55
-29 -55 -4 0 -7 -9 -8 -20 -1 -11 -9 -27 -17 -36 -9 -8 -16 -22 -16 -30 0 -8
-4 -14 -9 -14 -5 0 -12 -13 -16 -30 -9 -41 -19 -29 -88 112 -32 65 -62 120
-68 123 -5 4 -7 11 -4 16 4 5 1 9 -6 9 -7 0 -9 3 -6 7 4 3 3 11 -3 18 -8 10
-42 75 -196 375 -27 52 -51 97 -54 100 -12 12 -60 111 -60 125 0 8 -4 15 -9
15 -10 0 -27 39 -23 53 1 4 -1 7 -6 7 -4 0 -14 15 -21 32 -8 18 -29 59 -47 90
-18 32 -31 58 -28 58 3 0 -2 7 -10 16 -9 8 -14 20 -11 25 4 5 3 9 -2 9 -4 0
-19 24 -33 53 -14 28 -35 69 -48 90 -12 20 -20 37 -17 37 3 0 -7 19 -22 42
-14 24 -26 49 -26 55 0 7 -4 13 -8 13 -7 0 -22 39 -20 53 1 4 -3 7 -8 7 -5 0
-15 16 -22 35 -7 19 -15 32 -17 30 -3 -3 -11 0 -19 6 -10 9 -13 8 -13 -2 0 -9
-3 -10 -11 -2 -7 7 -21 8 -40 3 -18 -5 -29 -5 -29 1 0 6 -6 7 -12 3 -7 -5 -22
-8 -33 -8 -11 0 -26 3 -33 8 -6 4 -18 4 -24 -1 -19 -11 -37 -12 -44 -2 -4 6
-11 6 -19 -1 -9 -8 -15 -8 -20 0 -4 6 -12 7 -24 1 -9 -5 -23 -6 -30 -1 -8 4
-26 4 -41 0 -15 -4 -33 -4 -40 0 -6 4 -27 4 -46 0 -20 -5 -34 -4 -34 2 0 5 -6
6 -12 2 -16 -10 -48 -13 -48 -5 0 8 -77 4 -90 -4 -6 -3 -10 -1 -10 6 0 7 -5 8
-12 3 -12 -8 -33 -10 -48 -4 -15 6 -50 6 -50 0 0 -8 -49 -5 -57 3 -2 3 -17 2
-32 -3 -15 -4 -34 -5 -42 -1 -8 4 -27 5 -44 3z"/>
<path d="M25055 18360 c-11 -4 -25 -5 -31 -3 -14 5 -25 -45 -12 -53 5 -3 5
-11 -1 -18 -6 -7 -8 -15 -5 -19 9 -9 10 -97 1 -97 -5 0 -6 -4 -3 -9 3 -4 6
-160 6 -345 1 -185 3 -343 6 -351 3 -8 11 -12 18 -9 22 9 136 10 136 1 0 -4 5
-5 11 -2 17 11 166 11 175 0 11 -12 11 -45 1 -63 -5 -6 -4 -12 1 -12 10 0 9
-30 -2 -48 -4 -6 -3 -12 1 -12 10 0 9 -72 -1 -89 -4 -6 -3 -11 2 -11 10 0 9
-30 -2 -48 -4 -6 -3 -12 1 -12 10 0 9 -72 -1 -89 -4 -6 -3 -11 2 -11 10 0 9
-30 -2 -48 -4 -6 -3 -12 1 -12 5 0 8 -16 8 -35 0 -19 -4 -35 -8 -35 -5 0 -5
-6 0 -12 11 -18 10 -42 -2 -50 -7 -5 -7 -8 0 -8 12 0 13 -79 2 -97 -4 -6 -3
-15 3 -18 8 -5 7 -11 -1 -21 -7 -9 -8 -14 -1 -14 11 0 11 -18 -1 -37 -5 -7 -4
-13 1 -13 10 0 9 -30 -2 -48 -4 -6 -3 -12 2 -12 12 0 10 -43 -3 -52 -6 -5 -6
-8 2 -8 11 0 12 -24 1 -36 -4 -3 -3 -17 2 -30 6 -16 6 -24 -1 -24 -6 0 -7 -6
-2 -12 11 -18 10 -42 -2 -50 -7 -5 -7 -8 0 -8 11 0 12 -91 1 -109 -4 -6 -3
-11 2 -11 10 0 9 -30 -2 -48 -4 -6 -3 -12 1 -12 10 0 9 -72 -1 -89 -4 -6 -3
-11 2 -11 10 0 9 -30 -2 -48 -4 -6 -3 -12 1 -12 5 0 8 -16 8 -35 0 -19 -4 -35
-8 -35 -5 0 -5 -6 0 -12 11 -18 10 -42 -2 -50 -7 -5 -7 -8 0 -8 12 0 13 -79 2
-97 -4 -6 -3 -15 3 -18 8 -5 7 -11 -1 -21 -7 -9 -8 -14 -1 -14 11 0 11 -18 -1
-37 -5 -7 -4 -13 1 -13 10 0 9 -30 -2 -48 -4 -6 -3 -12 2 -12 12 0 10 -43 -3
-52 -6 -5 -6 -8 2 -8 11 0 12 -24 1 -36 -4 -3 -3 -17 2 -30 6 -16 6 -24 -1
-24 -6 0 -7 -6 -2 -12 11 -18 10 -42 -2 -50 -7 -5 -7 -8 0 -8 11 0 12 -91 1
-109 -4 -6 -3 -11 2 -11 10 0 9 -30 -2 -48 -4 -6 -3 -12 1 -12 10 0 9 -72 -1
-89 -4 -6 -3 -11 2 -11 10 0 9 -30 -2 -48 -4 -6 -3 -12 1 -12 11 0 10 -61 -1
-78 -4 -7 -3 -12 2 -12 13 0 10 -33 -3 -42 -6 -5 -6 -8 1 -8 6 0 10 -10 9 -22
-1 -22 -7 -23 -94 -28 -52 -3 -96 -1 -102 5 -6 6 -9 6 -9 0 0 -11 -92 -11
-109 -1 -6 4 -11 3 -11 -3 0 -6 -7 -8 -15 -5 -13 5 -15 -49 -17 -421 -2 -235
1 -429 6 -432 4 -3 2 -9 -5 -14 -11 -7 -11 -9 -1 -9 7 0 11 -4 8 -9 -4 -5 323
-8 797 -7 774 1 802 2 799 20 -2 12 1 16 9 10 8 -5 10 -3 4 7 -13 20 -14 120
-2 112 6 -4 7 -1 1 8 -12 19 -12 479 0 472 5 -4 6 0 0 8 -5 8 -9 68 -9 134 l0
120 -67 1 c-36 1 -71 5 -77 8 -6 4 -11 4 -11 -1 0 -4 -33 -7 -72 -6 -40 1 -85
2 -99 3 l-25 0 0 250 c1 138 -3 250 -8 250 -5 0 -4 6 1 13 13 15 13 47 0 47
-6 0 -6 5 0 13 13 15 13 47 0 47 -6 0 -6 5 0 13 13 15 13 47 0 47 -6 0 -6 5 0
13 13 15 13 47 1 47 -5 0 -6 5 -2 12 11 17 11 1048 0 1048 -5 0 -4 6 1 13 13
15 13 47 0 47 -6 0 -6 5 0 13 13 15 13 47 0 47 -6 0 -6 5 0 13 13 15 13 47 0
47 -6 0 -6 5 0 13 13 15 13 47 0 47 -6 0 -6 5 0 13 13 15 13 47 0 47 -6 0 -6
5 0 13 13 15 13 47 0 47 -6 0 -6 5 0 13 13 15 13 47 0 47 -6 0 -6 5 0 13 13
15 13 47 0 47 -6 0 -6 5 0 13 13 15 13 47 0 47 -6 0 -6 5 0 13 5 6 8 56 8 109
-2 89 9 143 22 110 2 -6 9 -10 14 -6 15 9 109 11 109 1 0 -4 5 -5 12 -1 6 4
52 7 102 6 l91 0 0 263 c0 175 3 261 10 257 6 -4 6 0 -1 9 -6 9 -10 80 -9 187
0 156 -1 175 -17 183 -10 6 -18 6 -18 1 0 -9 -47 -8 -57 1 -2 3 -17 2 -32 -3
-16 -4 -34 -4 -40 0 -7 4 -30 4 -52 0 -22 -4 -42 -4 -44 1 -3 4 -19 4 -35 -1
-19 -5 -30 -5 -30 1 0 6 -6 7 -12 3 -7 -5 -22 -8 -33 -8 -11 0 -26 3 -33 8 -6
4 -18 4 -24 -1 -19 -11 -37 -12 -44 -2 -4 6 -11 6 -19 -1 -9 -8 -15 -8 -20 0
-4 6 -12 7 -24 1 -9 -5 -23 -6 -30 -1 -8 4 -26 4 -41 0 -15 -4 -33 -4 -40 0
-6 4 -27 4 -46 0 -20 -5 -34 -4 -34 2 0 5 -6 6 -12 2 -16 -10 -48 -13 -48 -5
0 8 -77 4 -90 -4 -6 -3 -10 -1 -10 5 0 6 -5 8 -12 4 -16 -10 -50 -10 -66 0 -7
4 -18 4 -25 -1 -13 -10 -54 -10 -63 0 -3 3 -18 2 -33 -3 -16 -4 -34 -4 -40 0
-7 4 -30 4 -52 0 -22 -4 -42 -4 -44 1 -3 4 -19 4 -35 -1 -20 -6 -30 -5 -30 2
0 7 -4 7 -13 0 -7 -6 -19 -7 -26 -3 -7 5 -28 5 -47 1 -20 -5 -34 -4 -34 2 0 5
-6 6 -12 2 -16 -10 -50 -10 -65 -1 -6 4 -14 3 -18 -3 -4 -6 -13 -7 -23 -1 -9
5 -26 5 -37 1z"/>
<path d="M27038 18359 c-3 -8 -5 -985 -4 -2172 1 -1430 -2 -2158 -9 -2161 -5
-3 -5 -5 2 -5 7 -1 10 -7 7 -15 -5 -12 106 -14 750 -14 416 1 756 4 756 7 0 4
15 7 33 7 30 1 86 8 133 18 12 2 38 7 59 10 20 4 40 8 44 11 4 2 18 6 32 9 13
2 46 12 73 21 26 9 58 18 69 21 11 2 23 7 26 11 3 5 12 9 19 11 6 1 18 3 25 5
6 1 14 4 17 7 3 3 37 19 75 34 39 16 77 35 86 43 8 7 23 13 31 13 9 0 19 7 22
16 4 9 9 14 12 11 4 -3 31 9 60 28 30 19 57 35 60 35 2 0 10 5 17 10 45 38 61
50 67 50 3 0 15 8 26 18 10 10 30 25 43 34 71 49 347 318 327 318 -3 0 5 10
17 23 40 42 67 77 59 77 -4 0 1 5 11 11 9 6 15 14 12 20 -4 5 1 9 10 9 9 0 14
4 11 9 -5 7 23 53 44 71 3 3 11 16 18 30 13 27 34 62 42 70 8 8 112 220 114
233 1 7 10 27 19 44 10 18 17 34 16 35 0 2 5 17 11 33 7 17 13 37 15 45 2 8 9
29 15 45 6 17 13 37 15 45 2 8 8 35 15 60 7 25 14 52 15 60 2 8 4 15 5 15 1 0
3 9 4 20 2 11 6 34 9 50 46 209 51 589 11 785 -2 14 -7 45 -10 69 -2 23 -9 51
-14 62 -6 10 -9 22 -8 26 2 8 -18 92 -30 123 -3 8 -6 18 -7 23 -2 4 -4 9 -5
12 -1 3 -3 8 -4 13 -9 39 -41 122 -47 122 -5 0 -6 7 -3 15 4 8 2 15 -3 15 -5
0 -10 6 -10 13 0 21 -124 267 -135 267 -5 0 -7 4 -4 9 3 5 -3 20 -14 34 -11
14 -20 29 -20 34 0 4 -11 21 -25 37 -14 16 -25 32 -25 36 0 4 -11 20 -25 36
-14 16 -25 33 -25 37 0 4 -10 19 -22 31 -13 13 -34 39 -48 57 -49 66 -187 209
-201 209 -6 0 -7 5 -4 10 3 6 2 10 -3 10 -5 0 -23 14 -40 30 -18 17 -36 30
-41 30 -4 0 -16 11 -27 24 -10 14 -21 23 -24 21 -4 -2 -13 5 -20 16 -8 10 -20
19 -26 19 -7 0 -14 3 -16 8 -5 12 -163 113 -174 111 -4 0 -10 3 -13 8 -3 5
-28 20 -56 33 -27 14 -51 28 -53 33 -2 4 -9 7 -16 7 -6 0 -29 9 -51 20 -22 11
-45 20 -52 20 -7 0 -13 4 -13 8 0 4 -10 8 -22 9 -11 1 -24 7 -28 13 -4 7 -11
11 -16 10 -5 0 -18 2 -29 6 -11 3 -31 8 -45 11 -13 2 -29 8 -35 13 -8 6 -90
26 -140 34 -5 1 -14 4 -20 7 -11 6 -52 11 -97 13 -16 1 -28 3 -28 7 0 6 -59
11 -157 13 -40 0 -73 4 -73 8 0 4 -12 3 -26 -2 -16 -7 -23 -7 -19 0 4 7 -3 7
-19 0 -18 -6 -26 -6 -26 1 0 6 -6 7 -12 3 -7 -5 -22 -8 -33 -8 -11 0 -26 3
-33 8 -6 4 -17 4 -24 0 -17 -11 -58 -11 -58 -1 0 4 -6 5 -12 1 -16 -10 -48
-13 -48 -5 0 8 -77 4 -90 -4 -6 -3 -10 -1 -10 6 0 7 -5 8 -12 3 -12 -8 -33
-10 -48 -4 -15 6 -50 6 -50 0 0 -8 -49 -5 -57 3 -2 3 -17 2 -32 -3 -16 -4 -34
-4 -40 0 -7 4 -30 4 -52 0 -22 -4 -42 -4 -44 1 -3 4 -19 4 -35 -1 -19 -5 -30
-5 -30 1 0 6 -6 7 -12 3 -7 -5 -22 -8 -33 -8 -11 0 -26 3 -33 8 -6 4 -18 4
-24 -1 -19 -11 -37 -12 -44 -2 -4 6 -11 6 -19 -1 -9 -8 -15 -8 -20 0 -4 6 -12
7 -24 1 -9 -5 -23 -6 -30 -1 -8 4 -26 4 -41 0 -15 -4 -33 -4 -40 0 -6 4 -27 4
-46 0 -21 -5 -34 -4 -34 2 0 7 -4 7 -13 0 -7 -6 -19 -7 -26 -3 -7 5 -28 5 -47
1 -21 -5 -34 -4 -37 3 -2 6 -6 5 -9 -4z m972 -900 c0 -5 5 -7 11 -4 15 10 189
12 189 2 0 -4 5 -5 11 -1 12 7 151 10 165 2 5 -2 30 -4 57 -3 26 1 47 -1 47
-5 0 -3 14 -5 30 -4 17 1 30 -1 30 -4 0 -4 16 -8 37 -9 20 -1 39 -6 42 -10 3
-4 15 -9 26 -11 11 -2 39 -12 62 -23 24 -10 50 -19 58 -19 8 0 15 -4 15 -10 0
-5 6 -10 14 -10 7 0 30 -11 50 -25 20 -13 36 -22 36 -19 0 10 115 -75 164
-121 17 -16 33 -28 36 -26 2 1 7 -6 11 -16 4 -10 8 -14 8 -9 1 5 13 -4 28 -20
15 -16 26 -32 25 -36 -1 -5 5 -8 13 -8 8 0 15 -5 15 -11 0 -6 6 -16 13 -23 33
-34 67 -76 61 -76 -3 0 1 -7 8 -15 31 -34 38 -45 31 -45 -4 0 -3 -4 2 -8 17
-12 45 -60 45 -77 0 -8 5 -15 10 -15 6 0 10 -7 10 -15 0 -8 5 -15 10 -15 5 0
9 -3 9 -7 -1 -5 0 -11 1 -15 1 -5 3 -11 4 -15 1 -5 9 -24 18 -43 16 -35 30
-71 32 -80 1 -3 5 -11 10 -18 4 -7 5 -16 2 -19 -3 -3 -1 -12 5 -20 6 -7 13
-25 15 -40 8 -58 16 -93 23 -93 3 0 7 -21 8 -48 6 -122 9 -158 16 -169 5 -7 5
-13 0 -13 -4 0 -8 -41 -8 -90 0 -49 -3 -90 -7 -90 -4 0 -6 -16 -4 -35 1 -19
-1 -35 -6 -35 -4 0 -8 -13 -8 -30 0 -17 -5 -30 -12 -31 -10 0 -10 -2 -1 -6 10
-3 10 -10 2 -24 -5 -11 -7 -23 -4 -28 3 -5 1 -11 -4 -13 -6 -1 -13 -18 -16
-36 -5 -32 -9 -43 -34 -90 -6 -13 -9 -27 -6 -31 3 -5 -2 -12 -11 -15 -9 -4
-14 -9 -11 -12 8 -8 -33 -86 -53 -101 -8 -7 -12 -13 -7 -13 11 0 -22 -60 -34
-60 -6 0 -8 -4 -5 -9 4 -5 2 -11 -3 -13 -5 -1 -11 -9 -13 -17 -2 -8 -15 -26
-30 -41 -16 -15 -28 -32 -28 -38 0 -6 -10 -18 -22 -26 -12 -9 -19 -16 -15 -16
4 0 2 -6 -5 -14 -7 -8 -16 -12 -20 -9 -5 2 -8 -1 -8 -8 0 -6 -11 -21 -23 -33
-95 -85 -117 -104 -117 -99 0 4 -9 -2 -20 -13 -31 -30 -46 -40 -135 -88 -11
-6 -22 -14 -25 -17 -8 -8 -74 -34 -82 -31 -5 1 -8 -2 -8 -8 0 -5 -8 -10 -18
-10 -10 0 -23 -5 -30 -12 -7 -7 -12 -8 -12 -4 0 5 -7 3 -15 -4 -8 -7 -15 -10
-15 -6 0 3 -11 1 -25 -4 -50 -19 -135 -32 -217 -34 -32 0 -58 -3 -58 -6 0 -3
-94 -4 -210 -2 -209 3 -210 3 -211 25 0 12 -1 590 -2 1284 l-2 1262 35 4 c19
2 38 4 43 5 4 1 7 -3 7 -9z"/>
<path d="M9937 17105 c-2 -5 -3 -208 -3 -450 l1 -440 170 -2 c94 -1 173 -2
176 -2 3 -1 6 -500 5 -1110 l-1 -1109 433 0 c370 0 432 2 432 15 0 9 5 11 13
7 9 -6 9 -4 1 7 -12 16 -13 267 -2 285 4 6 4 14 0 18 -10 10 -10 296 0 302 5
3 5 11 1 17 -10 16 -11 217 -1 223 5 3 5 11 1 17 -10 16 -11 217 -1 223 5 3 5
11 1 17 -10 16 -11 217 -1 223 5 3 5 11 1 17 -11 17 -11 137 -1 143 5 3 5 11
1 17 -10 16 -11 217 -1 223 5 3 5 11 1 17 -10 16 -11 217 -1 223 5 3 5 11 1
17 -10 16 -11 217 -1 223 5 3 5 11 1 17 -10 16 -11 297 -1 303 5 3 5 11 1 17
-13 20 -12 97 1 90 8 -5 8 -3 0 8 -16 21 -18 82 -2 73 10 -6 10 -4 2 7 -16 21
-18 82 -2 73 10 -6 10 -4 2 7 -15 20 -18 82 -3 73 9 -5 9 -3 3 7 -5 8 -10 52
-10 99 -1 47 -2 92 -3 100 -1 13 -75 15 -606 15 -394 0 -606 -3 -608 -10z"/>
<path d="M5 15012 c-3 -3 -5 -348 -5 -768 0 -668 2 -763 15 -768 8 -3 15 -1
15 5 0 6 5 7 13 2 17 -11 101 -10 110 2 4 7 10 6 15 -1 8 -11 91 -12 110 0 6
4 12 3 12 -2 0 -8 57 -9 85 -2 6 2 17 0 25 -4 13 -5 16 -36 15 -206 0 -129 3
-201 10 -203 5 -2 352 -3 770 -3 l759 1 4 43 c3 40 2 44 -20 42 -13 -1 -25 -1
-28 -1 -18 7 -110 4 -110 -2 0 -5 -5 -5 -12 -1 -7 4 -24 8 -38 8 -14 0 -31 -4
-38 -8 -7 -4 -12 -4 -12 1 0 4 -128 7 -284 6 -243 -1 -285 0 -290 13 -3 8 -2
12 4 9 5 -3 7 15 5 43 l-3 48 236 0 c185 -1 238 2 249 13 11 10 11 16 2 27 -7
8 -7 14 -2 14 7 0 8 15 3 40 -4 22 -4 40 0 40 10 0 6 44 -5 52 -6 5 -6 8 2 8
8 0 9 9 3 30 -5 17 -5 30 -1 30 5 0 6 10 4 23 -4 19 -11 23 -47 23 -35 1 -44
-3 -53 -23 -6 -13 -8 -21 -3 -18 4 3 8 -31 8 -75 0 -44 -3 -81 -6 -81 -4 -1
-93 -3 -198 -3 l-191 -2 0 81 c0 44 -1 89 -2 101 -1 20 -6 20 -250 20 -218 0
-250 -2 -253 -15 -3 -14 -2 -247 1 -276 2 -15 279 -11 294 4 9 9 9 14 -3 21
-8 5 -10 10 -4 10 5 0 10 11 10 25 0 14 -5 25 -10 26 -6 0 -54 1 -106 3 l-95
2 -1 44 c0 25 1 50 3 56 2 6 31 11 66 12 34 1 73 3 87 5 14 2 30 1 35 -2 16
-9 55 -9 61 0 2 5 16 4 29 -1 14 -5 25 -7 25 -4 0 4 7 1 15 -6 11 -9 12 -16 5
-25 -8 -9 -8 -15 0 -20 8 -5 8 -11 -1 -21 -7 -9 -8 -14 -1 -14 7 0 8 -10 2
-30 -5 -16 -5 -30 -1 -30 3 0 7 -9 7 -20 0 -11 -4 -20 -8 -20 -5 0 -4 -10 3
-21 9 -17 8 -20 -2 -14 -8 5 -10 4 -5 -4 12 -19 14 -61 3 -61 -5 0 -4 -7 3
-15 16 -20 1 -25 -68 -22 -28 1 -52 -2 -52 -6 0 -5 -5 -5 -12 -1 -15 10 -61
10 -76 0 -7 -4 -12 -2 -12 5 0 8 -3 9 -13 0 -8 -6 -17 -8 -20 -5 -9 9 -102 8
-116 0 -6 -4 -11 -4 -11 1 0 4 -34 7 -75 6 l-75 -2 0 208 0 207 -207 0 -208 0
0 264 0 265 55 0 55 0 0 -203 c0 -111 2 -202 5 -203 3 -1 21 -2 40 -4 19 -2
40 -4 45 -5 6 -1 12 -1 15 0 16 7 80 4 80 -3 0 -6 5 -6 13 -1 6 5 32 9 57 8
l45 -1 5 76 c3 42 4 156 2 255 -3 167 -4 178 -21 173 -10 -2 -25 -1 -32 4 -7
4 -17 5 -22 2 -7 -4 -84 -7 -126 -4 -4 1 -8 16 -8 34 1 18 -2 38 -7 45 -4 7
-4 12 1 12 4 0 8 14 8 30 0 17 -4 30 -8 30 -5 0 -5 5 -2 11 4 6 8 58 9 117 l1
107 80 1 c143 2 131 -2 127 49 l-4 46 -152 -2 -151 -1 1 -238 1 -238 -29 -4
c-15 -3 -28 0 -28 6 0 6 -4 6 -11 -1 -6 -6 -19 -9 -29 -6 -20 5 -34 29 -22 37
4 2 6 181 4 398 l-2 394 -40 0 c-22 0 -42 -2 -45 -4z m400 -921 c7 -1 10 -59
10 -158 l0 -158 -58 -2 -57 -2 3 55 c1 30 -2 54 -6 54 -5 0 -5 5 -1 11 4 6 7
52 6 103 0 50 2 94 4 97 2 4 61 5 99 0z"/>
<path d="M12233 14858 c-43 -16 -58 -21 -63 -23 -35 -10 -84 -42 -123 -79 -26
-25 -45 -46 -42 -46 4 0 -4 -13 -18 -30 -20 -23 -53 -98 -63 -142 -1 -5 -3 -9
-4 -10 -6 -8 -6 -186 1 -204 4 -11 10 -35 12 -53 3 -17 15 -49 26 -71 22 -43
81 -127 81 -116 0 4 6 1 14 -6 8 -7 12 -16 9 -20 -2 -5 2 -8 10 -8 7 0 23 -9
34 -19 12 -11 24 -17 27 -13 4 3 10 1 14 -5 23 -37 258 -52 322 -19 17 8 28
10 25 5 -3 -5 1 -6 9 -3 9 3 16 10 16 16 0 5 5 6 10 3 6 -3 10 -2 10 4 0 5 9
12 20 16 18 6 53 38 103 96 10 11 23 34 29 50 5 16 14 29 20 29 5 0 7 4 3 9
-3 5 -1 12 5 16 6 4 8 10 5 15 -3 5 -1 11 4 14 5 4 8 17 6 31 -1 14 1 25 5 25
3 0 7 34 7 75 1 41 4 79 8 85 3 5 1 10 -5 10 -7 0 -10 6 -7 14 3 8 3 17 -1 20
-7 8 -12 32 -14 64 0 12 -4 22 -8 22 -4 0 -15 18 -25 40 -17 38 -29 54 -74
105 -33 36 -121 94 -121 79 0 -3 -6 -2 -12 3 -29 23 -211 38 -255 21z"/>
<path d="M24070 14857 c-25 -4 -52 -11 -60 -14 -8 -3 -18 -5 -22 -5 -5 1 -8
-1 -8 -6 0 -4 -13 -13 -29 -20 -41 -18 -149 -127 -143 -144 1 -5 -3 -8 -9 -8
-5 0 -8 -4 -5 -9 3 -5 -1 -14 -9 -21 -8 -7 -13 -16 -10 -20 3 -5 1 -11 -5 -15
-6 -4 -8 -11 -5 -16 4 -5 2 -9 -3 -9 -5 0 -9 -6 -9 -12 -3 -56 -14 -152 -19
-159 -3 -5 -1 -9 3 -9 5 0 9 -15 10 -32 2 -59 7 -88 17 -88 5 0 7 -3 3 -6 -3
-4 0 -19 9 -35 8 -16 12 -29 9 -29 -4 0 1 -7 9 -16 9 -8 14 -20 11 -25 -4 -5
-2 -9 3 -9 5 0 21 -17 35 -37 15 -21 27 -34 27 -30 0 4 12 -6 28 -21 15 -15
41 -34 57 -42 17 -8 33 -19 37 -25 4 -5 8 -7 8 -3 0 3 21 1 48 -6 46 -13 154
-14 218 -3 34 6 122 44 140 62 7 5 26 21 42 34 17 14 29 28 26 32 -2 4 7 16
21 28 15 11 26 23 26 28 -1 17 11 43 19 43 5 0 7 6 4 14 -3 8 0 17 5 21 6 3 9
11 6 16 -4 5 -2 9 3 9 6 0 10 6 9 13 -1 46 4 68 16 61 9 -6 9 -4 1 7 -6 8 -9
42 -8 77 2 45 -1 60 -9 55 -8 -5 -8 -2 0 8 10 12 10 18 1 27 -9 9 -9 12 3 12
11 0 11 2 1 9 -7 4 -16 23 -19 42 -3 19 -10 37 -16 41 -6 4 -8 10 -5 14 4 3 2
12 -5 20 -29 32 -37 44 -37 53 0 5 -7 12 -16 15 -8 3 -12 10 -9 16 3 5 3 10
-2 10 -4 0 -21 12 -38 28 -34 30 -118 72 -152 75 -13 1 -23 4 -23 7 0 8 -131
7 -180 -3z"/>
<path d="M627 14041 c-2 -3 -2 -84 -2 -179 1 -116 6 -177 13 -184 7 -7 12 -8
12 -2 0 11 209 12 228 1 6 -5 12 -4 12 0 0 5 23 8 50 7 32 -2 50 2 51 9 1 7 2
59 3 117 0 58 4 110 8 116 4 6 4 14 0 18 -4 4 -8 24 -8 44 -1 20 -2 43 -3 49
-1 9 -46 12 -181 12 -99 -1 -181 -4 -183 -8z m192 -86 c73 0 75 -1 82 -27 4
-16 4 -28 1 -28 -4 0 -7 -28 -7 -62 l0 -63 -89 0 -89 0 -2 33 c-1 18 2 35 7
38 5 3 5 10 1 16 -17 29 -1 123 17 99 3 -3 38 -6 79 -6z"/>
<path d="M5 13428 c-3 -8 -4 -92 -3 -188 l3 -175 182 0 183 -1 0 183 0 182
-150 3 c-83 2 -150 0 -150 -3 0 -8 -33 -5 -48 5 -7 4 -14 2 -17 -6z m266 -98
c0 -3 2 -44 3 -92 l1 -87 -92 0 -93 0 -1 67 c-1 69 0 90 5 107 4 10 175 15
177 5z"/>
</g>
</svg>
